<svg id="Layer_1" data-name="Layer 1" xmlns="http://www.w3.org/2000/svg" viewBox="0 0 295.9 244.5">
  <defs>
    <style>
      .cls-1 {' fill: \'#fff\' '}
    </style>
  </defs>
  <title>Simple_crest</title>
  <g>
    <path className="cls-1" d="M171.11,89.05c-1.39,2.66-2.59,4.21-2.41,6.25s2.35,3.52,3.35,5.56c.94-2.39,2.48-4.19,2.31-6.08s-2.8-4.35-3.25-5.73" transform="translate(-44.77 -49.35)" />
    <path className="cls-1" d="M206.76,89.05c1.37,2.66,2.58,4.21,2.41,6.25s-2.35,3.52-3.37,5.56c-.93-2.39-2.46-4.19-2.29-6.08s2.78-4.35,3.25-5.73" transform="translate(-44.77 -49.35)" />
    <path className="cls-1" d="M150.6,87.52a2.41,2.41,0,1,0-2.4-2.41,2.4,2.4,0,0,0,2.4,2.41" transform="translate(-44.77 -49.35)" />
    <path className="cls-1" d="M152.2,91a2.41,2.41,0,1,0-2.41,2.41A2.39,2.39,0,0,0,152.2,91" transform="translate(-44.77 -49.35)" />
    <path className="cls-1" d="M153.39,96.81A2.42,2.42,0,1,0,151,99.19a2.4,2.4,0,0,0,2.41-2.39" transform="translate(-44.77 -49.35)" />
    <path className="cls-1" d="M163.93,76a2.41,2.41,0,1,0-2.41-2.41A2.41,2.41,0,0,0,163.93,76" transform="translate(-44.77 -49.35)" />
    <path className="cls-1" d="M157.95,77.88a2.41,2.41,0,0,0,0-4.83,2.41,2.41,0,1,0,0,4.83" transform="translate(-44.77 -49.35)" />
    <path className="cls-1" d="M153.23,82a2.41,2.41,0,1,0-2.4-2.41,2.39,2.39,0,0,0,2.4,2.41" transform="translate(-44.77 -49.35)" />
    <path className="cls-1" d="M170.22,76.61a2.38,2.38,0,0,0,2.4-2.41,2.4,2.4,0,1,0-2.4,2.41" transform="translate(-44.77 -49.35)" />
    <path className="cls-1" d="M176.19,78.34a2.42,2.42,0,1,0-2.41-2.42,2.4,2.4,0,0,0,2.41,2.42" transform="translate(-44.77 -49.35)" />
    <path className="cls-1" d="M181.81,81a2.42,2.42,0,1,0-2.4-2.41,2.4,2.4,0,0,0,2.4,2.41" transform="translate(-44.77 -49.35)" />
    <path className="cls-1" d="M224.79,85.11a2.41,2.41,0,1,0,2.39-2.41,2.39,2.39,0,0,0-2.39,2.41" transform="translate(-44.77 -49.35)" />
    <path className="cls-1" d="M228,88.55a2.41,2.41,0,0,0,0,4.83,2.41,2.41,0,1,0,0-4.83" transform="translate(-44.77 -49.35)" />
    <path className="cls-1" d="M226.82,94.38a2.41,2.41,0,1,0,2.42,2.41,2.41,2.41,0,0,0-2.42-2.41" transform="translate(-44.77 -49.35)" />
    <path className="cls-1" d="M213.86,76a2.41,2.41,0,1,0,0-4.83,2.41,2.41,0,1,0,0,4.83" transform="translate(-44.77 -49.35)" />
    <path className="cls-1" d="M219.85,77.88a2.41,2.41,0,0,0,0-4.83,2.41,2.41,0,0,0,0,4.83" transform="translate(-44.77 -49.35)" />
    <path className="cls-1" d="M224.56,82a2.41,2.41,0,1,0-2.4-2.41,2.4,2.4,0,0,0,2.4,2.41" transform="translate(-44.77 -49.35)" />
    <path className="cls-1" d="M207.57,76.61A2.38,2.38,0,0,0,210,74.2a2.41,2.41,0,0,0-2.41-2.41,2.44,2.44,0,0,0-2.42,2.41,2.41,2.41,0,0,0,2.42,2.41" transform="translate(-44.77 -49.35)" />
    <path className="cls-1" d="M201.6,78.34a2.42,2.42,0,1,0-2.41-2.42,2.42,2.42,0,0,0,2.41,2.42" transform="translate(-44.77 -49.35)" />
    <path className="cls-1" d="M193.58,78.57a2.4,2.4,0,1,0,2.4-2.42,2.39,2.39,0,0,0-2.4,2.42" transform="translate(-44.77 -49.35)" />
    <path className="cls-1" d="M184.78,91.59h2.7V81.28a9.68,9.68,0,0,1-2.7-.83Z" transform="translate(-44.77 -49.35)" />
    <path className="cls-1" d="M193,80.46a10,10,0,0,1-2.7.83V91.59H193Z" transform="translate(-44.77 -49.35)" />
    <path className="cls-1" d="M187.35,69.07V62.95a7.57,7.57,0,0,0-5.93,6.12Z" transform="translate(-44.77 -49.35)" />
    <path className="cls-1" d="M190.48,69.07h5.88a7.53,7.53,0,0,0-5.88-6.12Z" transform="translate(-44.77 -49.35)" />
    <path className="cls-1" d="M181.5,72a7.57,7.57,0,0,0,14.77,0Z" transform="translate(-44.77 -49.35)" />
    <path className="cls-1" d="M193,62a8.51,8.51,0,0,1-3.29-5.35,9.58,9.58,0,0,1,5.47,3.5V51.81a9.48,9.48,0,0,1-5.47,3.5c.21-2,1.47-3.85,3.16-6h-8c1.69,2.12,2.91,3.94,3.15,6a9.53,9.53,0,0,1-5.48-3.5v8.33a9.63,9.63,0,0,1,5.48-3.5A8.43,8.43,0,0,1,184.75,62Z" transform="translate(-44.77 -49.35)" />
    <path className="cls-1" d="M193.26,234.87a3,3,0,1,1,3-3,3,3,0,0,1-3,3m-14.2-4.41a3.25,3.25,0,1,1,3.23-3.25,3.25,3.25,0,0,1-3.23,3.25M174.15,216l-.81-.6a2.83,2.83,0,0,0-4,0,17.29,17.29,0,0,0-1.75,1.83l-.83.94.55.46c1.56,1.23,1.8,2.6,1.37,3.39a1.5,1.5,0,0,1-.81.63,4.26,4.26,0,0,1-3-.75l-.59-.35-.36.58c-.1.15-.17.27-.3.44s-.25.37-.39.62a6,6,0,0,0-1,2.77,1.74,1.74,0,0,0,.08.56,2.55,2.55,0,0,0,1.52,1.58l.37.23c.68.44,1.67,1,2.41,1.42a4.25,4.25,0,0,1-4.14.19,6.38,6.38,0,0,1-3.41-4.56,12.73,12.73,0,0,1,2.29-6.41l.23-.35-.21-.38a13.46,13.46,0,0,1-1.07-2.08c.79.12,1.56.25,2.33.44l.39.1.27-.29c.91-1,4.1-4.21,7.06-4.21a5,5,0,0,1,3.74,1.87,5.56,5.56,0,0,1,1.37,2.89c-.41-.29-.88-.63-1.34-1m27.76,11.39a154.21,154.21,0,0,1-25-9v-.11a6.57,6.57,0,0,0-1.72-5.12,6.46,6.46,0,0,0-4.78-2.35,6.83,6.83,0,0,0-2.29.46,37.18,37.18,0,0,1-3.48-3.58,41.59,41.59,0,0,1-7.45-12.93,46,46,0,0,1-2.18-8.58c-.39,2.44-3.15,5.69-7.9,5.75.08-.5,0-1.73-.41-1.87-1.24,1.39-3.14,2.91-7.41,1.39a60.25,60.25,0,0,0,2.78,9.83,58.15,58.15,0,0,0,10.89,18.27,54.92,54.92,0,0,0,4.85,4.85,8.62,8.62,0,0,0-.06,1c0,1.77,1.71,4.6,4.19,5.79a5.8,5.8,0,0,0,6.17-.69,68.25,68.25,0,0,0,13.44,5.21A60.91,60.91,0,0,0,197,238.24c3.68,0,8.57-1.75,13.4-4.79a33.41,33.41,0,0,0,5.06-3.85l.54-.48c-3.76.52-9.42-.54-14-1.69" transform="translate(-44.77 -49.35)" />
    <path className="cls-1" d="M199.78,258.17a2.65,2.65,0,0,0-2-1.6c-3.1,0-1.89,8.18-5.58,8.18a2.21,2.21,0,0,1-2.46-2.17c0-1.15.81-1.5.81-2.42s-.73-1.25-1.54-1.25-1.53.35-1.53,1.25.81,1.27.81,2.42a2.22,2.22,0,0,1-2.46,2.17c-3.68,0-2.48-8.18-5.58-8.18a2.63,2.63,0,0,0-2,1.6,7.34,7.34,0,0,1-1-3.19,3.56,3.56,0,0,1,3.56-3.56c4.14,0,3.17,5.64,5.15,5.64a1.38,1.38,0,0,0,1.52-1.38c0-1.62-2.88-3.14-2.88-5.43s2.11-4.23,4.4-6.08c2.31,1.85,4.39,3.79,4.39,6.08s-2.86,3.81-2.86,5.43a1.38,1.38,0,0,0,1.52,1.38c2,0,1-5.64,5.14-5.64a3.56,3.56,0,0,1,3.57,3.56,7.32,7.32,0,0,1-1,3.19M189,269.61a2,2,0,1,1,2-2,2,2,0,0,1-2,2m8.19-19.8a5.45,5.45,0,0,0-1.51.21V241a63.74,63.74,0,0,1-13.28-2v11.1a4.79,4.79,0,0,0-1.6-.25,5.17,5.17,0,0,0-5.16,5.16,9.56,9.56,0,0,0,2.56,5.87c.62-1.42,1.14-2.58,1.93-2.58,1.58,0,.86,7.87,5.49,8.08a3.47,3.47,0,0,0-.25,1.27,3.61,3.61,0,0,0,7.22,0,3.47,3.47,0,0,0-.23-1.27c4.63-.21,3.84-8.08,5.43-8.08.79,0,1.28,1.08,2,2.58a9.55,9.55,0,0,0,2.56-5.87,5.17,5.17,0,0,0-5.17-5.16" transform="translate(-44.77 -49.35)" />
    <path className="cls-1" d="M303.69,260.73a1,1,0,0,0-1.18-.58c-10.62,3.08-23.8-5.69-36.56-14.2C255.23,238.82,245.1,232,236.41,232a17.77,17.77,0,0,0-8.53,2,15.13,15.13,0,0,0-6.73,7.85,48.15,48.15,0,0,1-4.25,7.92c-1.46,2.33-2.55,4-2.55,6.12a6.48,6.48,0,0,0,2.23,4.73,22.58,22.58,0,0,0,5.55,3.81c.56.29,1.11.56,1.64.81,2.11,1,3.41,1.73,3.66,2.9a69.22,69.22,0,0,1-15.81,4.48,141.55,141.55,0,0,1-45.35,0,68.48,68.48,0,0,1-15.83-4.5c.17-1.77,1.47-2.46,3.78-3.56.55-.25,1.09-.52,1.65-.81a29.84,29.84,0,0,0,5.45-3.42,5.67,5.67,0,0,0,2.19-4.44c0-2.1-1.07-3.77-2.53-6.12a47,47,0,0,1-4.23-7.92,15.16,15.16,0,0,0-6.77-7.83,17.61,17.61,0,0,0-8.51-2c-8.69,0-18.81,6.75-29.55,13.89-12.75,8.5-25.92,17.29-36.54,14.21a1,1,0,0,0-1.18.58,1,1,0,0,0,.51,1.23,44.67,44.67,0,0,1,8.85,5.79c3.82,3,7.45,5.81,11.43,5.81,3.78,0,7.84-1.19,12.76-3.79a129.05,129.05,0,0,0,13-8.18c8.42-5.75,17.08-11.66,25.3-12.31a33.18,33.18,0,0,1-2.48,2.33c-2.42,2.17-4.53,4.06-4.53,7.87,0,3,1,5.14,2.44,8.12.43.85.9,1.83,1.39,2.92a32.64,32.64,0,0,1,1.86,5.93c.21,1,.49,2.06.85,3.35.51,1.94,1.49,5.6,7.52,8.68,7,3.58,19.07,5.37,35.85,5.37s28.85-1.79,35.84-5.37c6-3.08,7-6.73,7.54-8.68.36-1.29.61-2.37.85-3.35a31.17,31.17,0,0,1,1.86-5.93c.66-1.5,1.32-2.69,1.89-3.77,1.26-2.37,2.27-4.23,2.27-6.94,0-3.81-2.22-5.81-4.77-8.1-.81-.71-1.67-1.52-2.58-2.44,8.25.67,16.92,6.58,25.32,12.31a133.2,133.2,0,0,0,13,8.19c4.94,2.58,9,3.77,12.76,3.77,4,0,7.61-2.81,11.43-5.81a45.08,45.08,0,0,1,8.83-5.79,1,1,0,0,0,.53-1.23" transform="translate(-44.77 -49.35)" />
    <path className="cls-1" d="M190.37,178.26V138.4a30.54,30.54,0,0,1,12,3.08,34.85,34.85,0,0,1,11,8.7,41.73,41.73,0,0,1,7.44,12.91,46.66,46.66,0,0,1,2.7,15.18ZM189,121.78c-11.31,0-19.09,3.33-23.62,6.35-2.62-1.56-3.76-3.08-3.76-4.87,0-6.42,18.16-7,27.36-7h0c9.22,0,27.37.58,27.37,7,0,1.79-1.13,3.31-3.76,4.87-4.55-3-12.33-6.35-23.61-6.35m-.6,56.48H154.44a47,47,0,0,1,2.72-15.18,42,42,0,0,1,7.42-12.91,35.07,35.07,0,0,1,11-8.7,30.23,30.23,0,0,1,12.8-3.12Zm51.5-2.54A13.9,13.9,0,0,1,235.8,171c-1.26-2.62-6.52-13-7.37-14.39a6.19,6.19,0,0,1-1-3.08,4.66,4.66,0,0,1,1.12-2.75c.41-.52,1.56-1.64,2-2.31a7,7,0,0,1,.94-1.23,51.26,51.26,0,0,0-6.42-8.68,52.31,52.31,0,0,0-10.29-8.91c2-1.31,4.06-3.19,4.06-6.37a5.88,5.88,0,0,0-2.11-4.52c2.11-6.81,5.94-15,9.17-18.58l-6.82-2.89a10.72,10.72,0,0,1,1.5,7.71,8.9,8.9,0,0,1-3.81-5.19,30.15,30.15,0,0,1-2.5,7.43c2-.92,3.55-1.35,5.56-.5a8.11,8.11,0,0,1-8.59,2.85c-2.42-.58-4.85-1.87-4.75-3.73a2.31,2.31,0,0,1,2.42-2.33c1.48.15,1.56,2.42,1.11,3.42,2-1.1,4-6.81.92-7.65-2.41-.67-4.59,2.62-5.4,5.16-.45-3.06-1.71-6-4.13-5.81-3.14.21-2.11,6-1,7.48.18-2,1.31-3.12,2.23-3.06s2,.65,1.75,2.5-2.82,3-5.85,3c-2.88,0-7.94-.89-8.44-6.47a10.47,10.47,0,0,1,6.07,3.62,36.18,36.18,0,0,1,0-9.25,9.62,9.62,0,0,1-6,3.66,11.09,11.09,0,0,1,5-6.41h-12.4a11.1,11.1,0,0,1,4.94,6.39,9.46,9.46,0,0,1-5.87-3.64,36.36,36.36,0,0,1,0,9.25c1.22-1.83,4.08-3.23,6-3.6-.47,5.56-5.54,6.45-8.42,6.45s-5.66-1.13-5.85-3,.92-2.44,1.77-2.5,2,1,2.23,3.06c1.08-1.48,2.11-7.27-1-7.48-2.42-.17-3.68,2.75-4.13,5.81-.81-2.54-3-5.83-5.4-5.16-3.06.85-1,6.56.92,7.65-.45-1-.37-3.27,1.11-3.42a2.31,2.31,0,0,1,2.42,2.33c.1,1.87-2.33,3.15-4.75,3.73a8.15,8.15,0,0,1-8.57-2.83c2-.87,3.65-.44,5.64.48a29.75,29.75,0,0,1-2.5-7.43,8.83,8.83,0,0,1-3.9,5.23,10.89,10.89,0,0,1,1.5-7.75L152,100.15c3.24,3.6,7.07,11.83,9.2,18.64a5.8,5.8,0,0,0-2,4.46c0,3.18,2,5.06,4.06,6.37a51.71,51.71,0,0,0-10.28,8.91A57.37,57.37,0,0,0,142,156.71c.94,1,5,5.41,6,6.62,1.69,2.14,2.69,4.29,2.73,6a9.07,9.07,0,0,0,2.4,6.39,11.48,11.48,0,0,1,1.35,4.56h33.88v36.9a5.14,5.14,0,0,0-3.89,1.83c3.91,1.58,7.64,3,11.38,4.18a10,10,0,0,1,2.07-5.41s-4.92-.5-7.56-.63V180.24h33.12a46.72,46.72,0,0,1-2.68,14.6,41.41,41.41,0,0,1-7.44,12.93,34.5,34.5,0,0,1-11,8.68c-.64.33-.63.79-1.32,1.08a9,9,0,0,0-1.62,3,12.22,12.22,0,0,0-.77,3.37c1.56.48,2.39.73,3.89,1.1,11.62,2.91,14.51,2.06,15.17,1.56l0,0a54.56,54.56,0,0,0,7.31-6.87,58.19,58.19,0,0,0,10.89-18.29,63.23,63.23,0,0,0,4-22.35c0-1.4.06-1.89,0-3.27" transform="translate(-44.77 -49.35)" />
    <path className="cls-1" d="M208.88,154.58a.94.94,0,0,0-.31.94,1,1,0,0,0,1,.65,2.23,2.23,0,0,0-.77,1.39,2.25,2.25,0,0,0,1.56-.35.93.93,0,0,0,.35,1.11.9.9,0,0,0,.89,0,36.75,36.75,0,0,1,5,13.45,2.21,2.21,0,0,0-1.24-.35A2.26,2.26,0,0,0,216,173h-8.28a1,1,0,0,0-.55-1.1,1,1,0,0,0-1.13.38,2.21,2.21,0,0,0-.64-1.46,2.11,2.11,0,0,0-.63,1.46,1,1,0,0,0-1.14-.38A1.08,1.08,0,0,0,203,173H196a2.19,2.19,0,0,0,.49-1.4,2.06,2.06,0,0,0-1.41.52V160.64a1,1,0,0,0,1.13-.54,1,1,0,0,0-.39-1.12,2.25,2.25,0,0,0,1.46-.65,2.16,2.16,0,0,0-1.46-.65,1,1,0,0,0,.39-1.11,1,1,0,0,0-1.13-.54v-9.7a2.13,2.13,0,0,0,1.22.5,2.23,2.23,0,0,0-.34-1.38,25.41,25.41,0,0,1,6.38,3.12,30.18,30.18,0,0,1,6.54,6m9.38,17.16c.58.38.39,1.31-.35,1.21a37.57,37.57,0,0,0-6.36-16.81l.1-.1a2.09,2.09,0,0,0,1.39-1.73,2.2,2.2,0,0,0-2.13.94c-.23-.31-.49-.64-.73-.94a31.78,31.78,0,0,0-7.19-6.71,26.44,26.44,0,0,0-8-3.67.64.64,0,0,1,1.21-.17c.1-1-.81-1.58-1.32-1.37a.94.94,0,0,0-.61.83,2.14,2.14,0,0,0-1.5-.79,2.31,2.31,0,0,0,.47,1.6,1,1,0,0,0-.89.42,1.18,1.18,0,0,0,1.16,1.54c-.51-.4-.3-1.23.34-1.15v12.95a2.13,2.13,0,0,0-2.15.56,2.13,2.13,0,0,0,2.15.56v14.06c-.69.06-.86-.81-.32-1.19-1.07,0-1.5.92-1.26,1.44a1,1,0,0,0,1.07.52,2.12,2.12,0,0,0-.56,1.48,2.15,2.15,0,0,0,1.48-.58,1,1,0,0,0,.51,1.08,1.17,1.17,0,0,0,1.44-1.25.65.65,0,0,1-1.2-.29h9.76a2.15,2.15,0,0,0,.56,2.14,2.16,2.16,0,0,0,.57-2.14h10.88a.64.64,0,0,1-1.18.35,1.15,1.15,0,0,0,1.47,1.21,1,1,0,0,0,.5-1.08,2.2,2.2,0,0,0,1.49.54,2.24,2.24,0,0,0-.61-1.48,1,1,0,0,0,1.06-.54,1.17,1.17,0,0,0-1.3-1.42" transform="translate(-44.77 -49.35)" />
    <path className="cls-1" d="M212.45,168.18a1.82,1.82,0,0,0,.9-.85,1,1,0,0,1-.92-.09c.32-.21.71,0,.32-.62s-.63-.63-1-.17-3-.13-3-2.1a2,2,0,0,0,.9.75,2.32,2.32,0,0,0,.32.13,1.83,1.83,0,0,0,.34.08,1.76,1.76,0,0,0,.74.1l.16,0v-.06a1.19,1.19,0,0,0,1-1c.11-1.08-.92-1.6-2.07-2.54-.45-.38-.79-.69-1.06-1-.39-.77-.14-1.48-1.12-2.93a5.76,5.76,0,0,0-.34-1.25,3.59,3.59,0,0,0,.63,4.17c1.08,1.21,3.43,2.37,3.35,3.4,0,.23-.26.44-.62.5a1.61,1.61,0,0,1-.31,0,1.06,1.06,0,0,1-.22-.08,1.37,1.37,0,0,1-.49-.23,3,3,0,0,1-.83-.63,23.87,23.87,0,0,1-2.42-3c-1.11-1.38-.61-2.73-.43-3.89.77-1.06-.47-3.23-1.2-3.77a2,2,0,0,0,0-1.11,1.14,1.14,0,0,1-.67.08c-.19-.38-.27-.46-.55-.54-.47-.08-.47-.33-.51-.5-.28.23-.38.46-.65.48s-.55,0-.71.15a1,1,0,0,1-.81.29c-.45,0-.43.23-.39.58,0,.19,0,.5.32.62l.14.06.35.42.22-.46c.19-.17.79-.21.89.21.08.27.13.37-.21.4s-.61,0-1,.06-.23.34-.23.54.29.38.83.25,1.45-.21,1.45.23c0,1.17-1.34,1.13-1.65,2.54a3.24,3.24,0,0,1-.83-.77,4.38,4.38,0,0,0-1-1.23,5.33,5.33,0,0,0-1-.83c-.47-.29-.49-.5-.49-1s.2-.79.18-1.19a1.56,1.56,0,0,0-.12-.34.67.67,0,0,0-.63-.41.61.61,0,0,1,.25.42,1.47,1.47,0,0,0-.19.21.32.32,0,0,0,0,.42s0,0,0,.08a.93.93,0,0,1,0,.19c0,.08,0,0,0,0-.12-.29-.26-.73-.51-.75a.76.76,0,0,0-.2,0,.07.07,0,0,0,0-.06c0-.31-.33-.54-.71-.17.09,0,.24,0,.28.12a1.21,1.21,0,0,0-.06.29c0,.31.19.46.55.46,0,0,.08,0,.08.06a.38.38,0,0,1,0,.13s0,0,0,0c-.55-.23-.76,0-.78.27a.91.91,0,0,0,0,.21c-.2.14-.24.4.1.65,0-.1,0-.31.11-.34l.08,0c.06.06.14.12.16.13s.13,0,.29-.11.11,0,.14,0l.15.11s0,.06,0,.08c-.34.35-.28.65.14.75a.44.44,0,0,1-.81-.31c-.43.73.32,1.25,1,1,0,.27,0,.79.1.79a.15.15,0,0,1,.15-.13s0,0,0,.08.09.4.34.42c0-.13,0-.19.09-.23.08.17.21.36.29.52a5.12,5.12,0,0,0,2.33,2.54,6.25,6.25,0,0,0-1.64,1.58c-.39.37-1,.79-1.34.6-.16-.12-.2-.27-.41-.42a.68.68,0,0,0-.45-.13l-.22.11a.67.67,0,0,0-.75.21.57.57,0,0,1,.51.1c0,.1,0,.23,0,.23,0,.17.13.36.85.31,0,0,.14,0,.1.08a.41.41,0,0,1-.39.12c-.32-.1-.47-.35-.71-.06l-.15.21s0,0-.09,0c-.27.1-.55.63-.21.88a.62.62,0,0,1,.21-.46,2.1,2.1,0,0,1,.16.17c.19.33.43.5.92-.25,0-.06.06,0,0,0,0,.33-.34.81.1.88l.2,0a.18.18,0,0,0,0,.1.65.65,0,0,0,.83.4.72.72,0,0,1-.47-.5.52.52,0,0,0,.21,0c.26-.25,0-.61.09-.79s.08,0,.1,0,.32.48.68.29a.64.64,0,0,0,.3-.48,2.09,2.09,0,0,1,1.28-.23c-.06-.27.24-.61.77-.75a.77.77,0,0,1,.9.17,2.42,2.42,0,0,1,.54-.9c-.07,2.06,2.73,2,3.38,3.25a4.64,4.64,0,0,0-2.31-.44c-.66.12-1.85.75-2,1.54a2.88,2.88,0,0,0,1.2,2.21c-.81.15-1.1-.08-1.83.1l-.08,0c-.64.06-.71-1-1.48-.77a.66.66,0,0,0-.19.15c-.3,0-.71.36-.63.65a.9.9,0,0,1,.47-.27.7.7,0,0,0,0,.15c0,.12,0,.25.3.25s.19-.08.3-.08a.09.09,0,0,1,.08.1c0,.29-.92-.17-.77.63,0,0,.1.15.15.21,0,.25.16.5.58.36-.08-.06-.24-.19-.2-.31a.9.9,0,0,0,.18,0c.06,0,.1,0,.11-.12s0,0,0,0,.08,0,.08.08-.06.08-.06.15a1.93,1.93,0,0,0,.08.27c0,.27.37.56.79.29-.12,0-.37-.08-.39-.21s.18-.06.18-.08a.41.41,0,0,0,.09-.29c0-.08,0-.08.08-.08a.66.66,0,0,1,.2,0c.1,0,.12,0,.12.06a.48.48,0,0,0,.59.27.41.41,0,0,0,.26-.23,3.26,3.26,0,0,1,.34.23c-.08-.33.14-.56.77-.11l.47-.37s.61.25.87,0,.17-.35.17-.67c-.27-.63-.43-.56-.57-1.15-.2-1,1.22-1.62,2.07-1.44a4.68,4.68,0,0,0,2.6,2.89c1,.33,1.35-.71,1.65-.58a.61.61,0,0,1,.18.29,3.93,3.93,0,0,1-.12,1.13c-.1.21-.61,0-.94,0a.51.51,0,0,0-.37.17.71.71,0,0,0-.63.63,1.18,1.18,0,0,1,.55-.29v.13a.45.45,0,0,0,.77.29c0-.06.15,0,.08,0s-.64.56-.3.73c0,0,.12.06.22.08a.48.48,0,0,0,.38.54c-.08-.14-.1-.21,0-.48H211c.28,0,.16-.5.43-.65,0,0,.09,0,.07,0-.11.29-.16.65.12.73l.21.06a.48.48,0,0,0,.73.19c-.08,0-.3-.11-.34-.23s.18-.23.2-.25c.17-.63-.38-.63-.38-.88s.63-.13.63-.73a.8.8,0,0,1,0-.1c.3-.17.6-.35.61-.58a1.69,1.69,0,0,1-.77-.15Z" transform="translate(-44.77 -49.35)" />
    <path className="cls-1" d="M181.6,186.64l-.45,0a1.09,1.09,0,0,0-1.27.92,1.07,1.07,0,0,0,1.11,1.15l.34,0c0,.13,0,.31-.06.48-.16,1-.41,2.68-.71,4.64l-5.06-7.25c2.37-.94,4.27-2,5.3-2,.81,0,1,.4.81,2.06m-1.93,12.58-8-11.45a18.33,18.33,0,0,0,2.56-.75l6,8.56c-.17,1.19-.39,2.44-.59,3.64m-.81,5.14-11.31-16.22c.37,0,.73,0,1,0a12.89,12.89,0,0,0,1.73-.12l9.06,13c-.19,1.27-.39,2.41-.53,3.33m-12.76-16.1,12.39,17.81c-6.64-2.58-13.24-8.52-12.39-17.81m18.44-1.4-.58,0,0-.54a3.09,3.09,0,0,0-3.25-3.46c-1.9,0-5.59,2.46-10.73,2.46a14.19,14.19,0,0,1-6.43-2l-.65,1.56a.63.63,0,0,0,0-.17,1.27,1.27,0,1,0-2.54,0,1.28,1.28,0,0,0,1.28,1.27,1.21,1.21,0,0,0,1-.48L162,187l.69.29c-.77,7.81,5,17.75,15.21,20.79,1.51-.42,3-.17,3,1.46a1.26,1.26,0,0,1-1.41,1.44c-.62,0-1-.35-1-.73,0-.69,1.18-.29,1.3-.75.16-.63-.23-.92-.94-.92a1.7,1.7,0,0,0-1.77,1.67,2.2,2.2,0,0,0,2.32,2.21,3,3,0,0,0,3.17-3.42c.55,0,1.16-.06,1.3-.58l.12-1.6-.56-.08.43-17.87.39,0c.67,0,1.24-.27,1.28-1a1.07,1.07,0,0,0-1.06-1.1" transform="translate(-44.77 -49.35)" />
    <path className="cls-1" d="M175.49,149.09c0-.15.12-.27.18-.27a.19.19,0,0,0,.25-.15c.08-.15-.08-.21-.21-.31.15-.06.21-.1.15-.17s-.24.06-.3,0,.11-.13.15-.17a.13.13,0,0,1,.19,0l.65.31c.08,0,.14.08.14.17s0,.17,0,.19-.08-.19-.17-.19-.11.08,0,.23c-.15-.08-.29-.13-.37,0s0,.19,0,.33,0,.17,0,.31-.24.35-.46.23a.35.35,0,0,1-.12-.5m.73-1.64c-.08.17-.34.31-.49.15s0-.21-.2-.56a4.45,4.45,0,0,0,.69.41m.49.25a3.91,3.91,0,0,0,.79.29c-.36.1-.26.25-.49.23s-.34-.31-.3-.52m-1.75.42h0m7.4,2.71c2.42,0,3.63-.77,3.63-1.54,0-2.67-6.64-1-6.64-2.66a1,1,0,0,1,.47-.73h.1c3.33-.31,3.39-2.6,5.77-3.08-2.88-.4-3.27,1.87-4.51,2a1.51,1.51,0,0,0,.85-1.38c-.59.79-1.9.86-2.6,1.77a.59.59,0,0,0-.12.46,1.2,1.2,0,0,0-.7,1c0,2.54,6.75.79,6.75,2.64,0,.65-1.16,1.08-3,1.08-1.4,0-2.39-1-5-.33,0-.42.87-1.25.53-1.64a.63.63,0,0,0,.43-.52,1,1,0,0,0-.49-.23c.08-.11,0-.25-.14-.36a.83.83,0,0,0-.14-.35,2.28,2.28,0,0,0-.59-.38,1,1,0,0,0-.6-.17c-.08,0-.35,0-.37,0s-.33,0-.33.17a.63.63,0,0,0-.5-.21,1,1,0,0,0-.06.71c-.23,0-.49.64-.73.58.1.15.16.23.24.25-.19.37-.3.79-.51.81a.9.9,0,0,0,.17.19,7,7,0,0,0-.36,1.54,3.1,3.1,0,0,0-.55-.42c-.38-.21-.36-.42-.3-.79s.28-.65.3-.94c0,0,0-.25,0-.31a.53.53,0,0,0-.53-.35.32.32,0,0,1,.17.35l-.19.15c-.11.12-.16.23,0,.35s0,0,0,.08,0,.08-.07.15,0,0,0,0c-.06-.25-.12-.59-.36-.61a.47.47,0,0,0-.17,0,.06.06,0,0,1,0,0c0-.25-.24-.44-.61-.16.08,0,.19,0,.23.1a1.31,1.31,0,0,0-.11.27c0,.23.13.35.43.36a.22.22,0,0,1,.1,0s0,.08,0,.12,0,0-.06,0c-.45-.19-.69,0-.75.17v.21c-.17.1-.27.31,0,.5,0-.08,0-.25.16-.29h.06s.1.1.12.1.11,0,.3-.08a.12.12,0,0,1,.12,0l.13.1s0,0,0,.06c-.37.31-.35.58.06.65a.05.05,0,0,1,0,.08.39.39,0,1,1-.77-.11c-.54.63.17,1.1.81.81,0,0,.06,0,.06,0a.22.22,0,0,0,.17.19s0-.12.14-.12,0,0,0,.06,0,.35.23.36c0-.13,0-.23.1-.23s.27.46.61.85a7.12,7.12,0,0,1-1.48.44,3.55,3.55,0,0,0-1.17.06c-.37.19-1.33.56-1.6.15-.11-.12-.06-.25-.18-.46a.61.61,0,0,0-.3-.25h-.23a.53.53,0,0,0-.63-.08.47.47,0,0,1,.36.23,1.42,1.42,0,0,0-.1.21c-.08.12,0,.31.57.5,0,0,.09.08,0,.1a.29.29,0,0,1-.33,0c-.22-.19-.26-.46-.54-.29a.55.55,0,0,0-.17.09.12.12,0,0,0-.08,0c-.26,0-.67.31-.47.59a.39.39,0,0,1,.31-.25.82.82,0,0,0,.06.17c.07.29.18.52.81.12.07,0,.07,0,0,0-.14.27-.56.54-.24.75a.55.55,0,0,1,.15.1l0,0a.56.56,0,0,0,.54.59.55.55,0,0,1-.2-.52l.17,0c.3-.1.16-.46.32-.59s.08,0,.08.06.09.48.46.44a.52.52,0,0,0,.47-.52s0,0,0,0a.35.35,0,0,1,.17.38.45.45,0,0,0,.26-.25.53.53,0,0,1-.14.62.87.87,0,0,0,.58-.6.72.72,0,0,1,.13.19v0a1.39,1.39,0,0,0,.73,0s.06,0,0,0a.38.38,0,0,0,0,.37c0-.06.1-.17.13-.17s0,.33.22.56c.08-.88.57-.54,1.12-.9.08,0,.08,0,.06,0a.7.7,0,0,1-.24.29c.22,0,.69-.21.69-.54,0-.06.17-.17.35-.31a.64.64,0,0,0,.65-.27c0,.08.12.35,0,.42.6,0,1.2-.63,1.44-.71,1.26-.25-.79-1.15,1.81-1a1.21,1.21,0,0,0,.75-.27c-.19.38-.21,1.17.2,1.23a1.28,1.28,0,0,1,.64.29s0,.06,0,.08a1.38,1.38,0,0,0-.55.14c-.62.38-.64-.9-1.28-.67l-.16.11c-.25,0-.6.33-.55.6a.62.62,0,0,1,.41-.23v.12c0,.11,0,.21.24.21s.15-.06.25-.06.06,0,.06.06c0,.25-.79-.13-.64.54a.57.57,0,0,0,.12.21c0,.19.15.4.51.29-.06-.06-.19-.13-.17-.23s.15,0,.17,0,.06,0,.08-.12,0,0,0,0,.08,0,.08.06-.06.1-.06.15a1.3,1.3,0,0,0,.08.19c0,.27.32.5.68.27-.12,0-.33-.06-.35-.19l.15-.06a.31.31,0,0,0,.08-.23c0-.06,0-.06,0-.06a.85.85,0,0,1,.2,0,.1.1,0,0,1,.12,0,.39.39,0,0,0,.49.21c.43-.15.06-.52.41-.59.08,0,.2-.06.28,0,.34.08.83.08.92-.1a1,1,0,0,0-.32-1c-.21-.1,0-.35-.19-.67a2.93,2.93,0,0,0,1.28.33c.92,0,0-.13.45-.4A1.54,1.54,0,0,1,184,152c.12,0,.21.08.17.21-.09.5.06.56-.06.77s-.49,0-.75,0a.38.38,0,0,0-.29.14c-.24.06-.52.25-.5.52a1.08,1.08,0,0,1,.41-.21.9.9,0,0,0,0,.1.34.34,0,0,0,.59.21s.14,0,.08,0-.53.46-.23.6l.15.08a.45.45,0,0,0,.3.44c-.07-.1-.09-.15,0-.4h.17c.2,0,.12-.38.34-.52,0,0,.06,0,0,0-.08.23-.12.52.1.58l.16,0c.06.19.27.33.57.17a.64.64,0,0,1-.26-.19,1.24,1.24,0,0,0,.16-.21c.13-.52-.28-.52-.28-.71s.47-.1.47-.61a.33.33,0,0,0-.19-.29,0,0,0,0,1,0,0c.13,0,.27,0,.36-.17-.36,0-.26-.27-.32-.48a.11.11,0,0,1,0-.1c.12-.08.19-.21.15-.5-.11.15-.53.34-.57,0,0,0,0-.29-.39-.21-.62.06-.9-.27-2.09-.37-.06,0-.11-.06,0-.08" transform="translate(-44.77 -49.35)" />
    <path className="cls-1" d="M171.45,163.6v0s0,0,0,0m-2-4.14c.09-.15.14-.29.24-.29s.26,0,.3-.17-.11-.27-.26-.38c.17,0,.26-.14.17-.21s-.27.08-.31,0,.1-.11.14-.17.13-.08.26,0l.72.34c.11,0,.16.08.16.17s0,.23-.06.27-.06-.23-.2-.27-.12.12,0,.29c-.17-.08-.36-.15-.43,0a.25.25,0,0,0,.06.37c.06.08,0,.21-.06.38s-.28.42-.53.27a.43.43,0,0,1-.16-.6m.89-1.9c-.12.21-.37.38-.59.19s0-.27-.21-.65a3.5,3.5,0,0,0,.81.46m.57.29a3.76,3.76,0,0,0,.92.38c-.43.08-.34.25-.6.23s-.36-.36-.32-.61m-3.76,3.39s0,0,0,0v0m18.52-1.35c0-.73-.83-1.21-3.18-1.21s-7.72.88-7.72-.44c0-.65,1-.59,2.31-.52a1,1,0,0,0,.51.27c3.06.89,6.66-.73,8.49-.19-2.16-1.65-4,0-6.31-.46,1.37,0,1.82-.36,1.89-.73-1.06.67-3.07-.36-4.31.4l-.2.15c-1.69,0-3,0-3,1.08,0,2.35,6.34,1,8.33,1s2.42.19,2.42.58c0,.56-2,.71-3.1.71-1.73,0-6.94-.9-10.08-.27.25-.52.83-1.17.51-1.56a.69.69,0,0,0,.49-.6,1.22,1.22,0,0,0-.57-.27c.09-.13,0-.29-.16-.4s-.09-.36-.16-.42a3,3,0,0,0-.69-.48,2.94,2.94,0,0,0-.7-.19,2.14,2.14,0,0,0-.43.08c-.16,0-.38,0-.4.17a.89.89,0,0,0-.56-.23,1.18,1.18,0,0,0-.08.83c-.28,0-.57.75-.85.65.09.19.2.29.28.31-.24.42-.34.94-.61,1,.18.21.3.31.39.33,0,.31,0,.65-.06.9l-.51-.17a.45.45,0,0,1-.15,0,.36.36,0,0,1-.19-.06,1,1,0,0,1,.22,0l-.3-.1a6.16,6.16,0,0,0-1-.88c-.47-.29-.47-.5-.43-1s.22-.79.22-1.15a1.67,1.67,0,0,0-.1-.37.6.6,0,0,0-.61-.42.45.45,0,0,1,.24.42,1.14,1.14,0,0,0-.2.23.28.28,0,0,0,0,.4s0,0,0,.08a1.24,1.24,0,0,1,0,.21c0,.06,0,0-.06,0-.08-.31-.2-.73-.45-.73,0,0-.16,0-.2,0s0,0,0-.06c0-.31-.31-.56-.68-.19.06,0,.21.06.27.16a1.3,1.3,0,0,0-.1.31c0,.29.2.4.51.42.07,0,.1,0,.1.06s0,.1,0,.13,0,.06-.06,0c-.52-.25-.75,0-.79.25a.81.81,0,0,0,0,.21c-.2.15-.26.42.08.65,0-.11,0-.31.14-.35a.15.15,0,0,0,.08,0,.54.54,0,0,0,.14.13s.13,0,.32-.1.08-.06.12,0a.45.45,0,0,1,.15.1.06.06,0,0,1,0,.1c-.38.35-.34.69.14.79.06,0,.08,0,.08.1a.45.45,0,1,1-.88-.11c-.52.75.31,1.35,1,1,0,0,.06,0,.08,0s.08.23.2.25a.17.17,0,0,1,.15-.15s0,0,0,.08c0,.19.06.4.3.44,0-.13,0-.27.09-.27s.41.52.94.83.75.65,1,.36c-.06.46.38,1,.28,1a5.5,5.5,0,0,0-1.65.08c-.46.25-1.56.64-1.88.17-.12-.15-.08-.29-.21-.54s-.26-.29-.35-.29l-.26,0a.72.72,0,0,0-.75-.08.48.48,0,0,1,.41.29l-.1.21c-.1.16-.06.37.65.64,0,0,.08.08,0,.09a.34.34,0,0,1-.37,0c-.28-.21-.3-.52-.64-.35a1.12,1.12,0,0,0-.21.14s-.07-.06-.09-.06c-.29,0-.76.37-.57.71a.6.6,0,0,1,.39-.31,1.59,1.59,0,0,0,.06.23c.06.34.22.61.94.13.09-.06.09,0,.07,0-.18.33-.65.62-.28.87a1,1,0,0,1,.16.11s0,.06,0,.06a.69.69,0,0,0,.61.71.79.79,0,0,1-.22-.61c.08,0,.18.06.2,0,.35-.13.19-.56.37-.67s.1,0,.1,0,.12.58.53.54a.57.57,0,0,0,.55-.58s0,0,0,0a.41.41,0,0,1,.22.44.77.77,0,0,0,.3-.31.65.65,0,0,1-.16.73,1,1,0,0,0,.65-.71.57.57,0,0,1,.15.23,0,0,0,0,1,0,0,1.19,1.19,0,0,0,.83,0s.07,0,.07.06a.34.34,0,0,0,0,.4s.09-.19.15-.19,0,.38.26.65c.08-1.08.64-.65,1.3-1.08.08,0,.08,0,.06,0a.58.58,0,0,1-.28.37c.73.15,1.88-.94,2-1.42a3.61,3.61,0,0,1,.69-.06c2.07.17.63-1.87,4-1.29a1.56,1.56,0,0,0,.83-.37c-.26.42-.26,1.37.19,1.42a1.66,1.66,0,0,1,.79.35s0,0,0,.06a3.83,3.83,0,0,0-.63.15c-.7.48-.72-1.06-1.47-.77a.57.57,0,0,0-.22.17c-.29,0-.68.35-.63.65a.78.78,0,0,1,.49-.27v.15c0,.11,0,.25.28.25s.17-.1.27-.1.1,0,.1.11c0,.27-1-.19-.77.6a1.55,1.55,0,0,0,.13.25c0,.23.15.48.57.35-.06-.06-.21-.15-.19-.29l.19,0c.07,0,.09,0,.11-.13s0,0,0,0,.08,0,.08.1,0,.08,0,.15a.7.7,0,0,0,.08.25c-.06.27.37.6.79.29-.11,0-.37-.06-.41-.21s.17-.08.19-.08a.36.36,0,0,0,.11-.29c0-.06,0-.06.06-.06a.72.72,0,0,0,.19,0c.09,0,.12,0,.14.06a.48.48,0,0,0,.59.25c.51-.17.08-.63.47-.71a.51.51,0,0,1,.3,0c.41.09,1,.08,1.11-.1a1,1,0,0,0-.38-1.15c-.26-.14,0-.44-.22-.79a3.77,3.77,0,0,0,1.48.35,2.82,2.82,0,0,0,1.85-.44,1.76,1.76,0,0,1,1.3-.16c.16,0,.26.08.22.29-.12.56.06.6-.06.88s-.58,0-.88,0a.37.37,0,0,0-.34.15.65.65,0,0,0-.58.62,1,1,0,0,1,.5-.29V164a.4.4,0,0,0,.7.25s.14,0,.09.06c-.24.15-.61.54-.28.65,0,0,.1.08.19.11a.46.46,0,0,0,.34.5c-.06-.13-.08-.19,0-.46a.93.93,0,0,0,.2,0c.23,0,.14-.48.39-.64,0,0,.06,0,.06,0-.1.29-.16.62.1.69a.45.45,0,0,0,.2,0,.43.43,0,0,0,.66.19.57.57,0,0,1-.3-.21,1.73,1.73,0,0,0,.18-.27c.17-.58-.33-.58-.33-.83s.57-.08.57-.67a.38.38,0,0,0-.25-.37.05.05,0,0,1,0,0h0c.15,0,.34,0,.41-.19-.43,0-.32-.33-.36-.54a.11.11,0,0,1,0-.14.56.56,0,0,0,.2-.59c-.14.19-.63.4-.69,0,0,0,0-.31-.43-.23a15.26,15.26,0,0,1-2.61-.19c1.56,0,3.87-.4,3.87-1.27" transform="translate(-44.77 -49.35)" />
    <path className="cls-1" d="M166.79,169.95c.06-.14.14-.29.21-.29s.24,0,.3-.15-.1-.27-.26-.37c.16,0,.24-.11.16-.19s-.26.06-.3,0,.1-.13.13-.17.14-.06.22,0l.73.35a.21.21,0,0,1,.14.19c0,.06,0,.21,0,.23s-.08-.21-.22-.23-.1.08,0,.25c-.17-.06-.33-.14-.41,0a.29.29,0,0,0,0,.37c.07.06,0,.19,0,.35s-.27.4-.51.29a.44.44,0,0,1-.14-.59m.83-1.81c-.12.19-.36.36-.56.17s0-.23-.21-.61a3.44,3.44,0,0,0,.77.44m.55.29a4.73,4.73,0,0,0,.89.35c-.41.1-.32.23-.59.23s-.34-.36-.3-.58m16.49,1.83c0-.69-.75-1.13-3-1.13s-9.2.85-9.2-.42c0-.81,2.34-.46,4.07-.42a.85.85,0,0,0,.5.31c2.89.83,5.94-1.11,8-.42-1.64-1.5-3.76.17-5.95-.31,1.28,0,2.62-.25,2.69-.6-1,.64-3.84-.44-5,.31a.47.47,0,0,0-.19.15c-2.16,0-4.77-.29-4.77,1,0,2.25,7.9.92,9.81.92s2.28.21,2.28.56c0,.54-1.89.67-3,.67-1.75,0-9.14-1-12.07-.08.17-.5.88-1.25.55-1.65a.67.67,0,0,0,.47-.56,1,1,0,0,0-.55-.27c.1-.12,0-.29-.12-.39s-.12-.33-.16-.38a3.6,3.6,0,0,0-.66-.46,2,2,0,0,0-.67-.17c-.08,0-.38.06-.41.06s-.36,0-.38.15a.94.94,0,0,0-.51-.21.88.88,0,0,0-.08.79c-.28,0-.56.71-.81.63.1.19.17.27.25.29-.21.4-.31.86-.57.9a2.68,2.68,0,0,0,.24.27,3.26,3.26,0,0,0-.09.67l-.23-.08a2.68,2.68,0,0,1-.36,0,1.67,1.67,0,0,0-.37-.06c-.36,0-.62-.62-1.22-1-.43-.25-.45-.46-.45-.92s.17-.75.15-1.12c0,0-.08-.25-.11-.35a.58.58,0,0,0-.59-.38.48.48,0,0,1,.23.38,1.18,1.18,0,0,0-.17.21.29.29,0,0,0,0,.4.1.1,0,0,1,0,.08,1,1,0,0,1,0,.17c0,.08,0,0-.06,0-.11-.29-.22-.69-.48-.71l-.17,0v0c0-.29-.32-.5-.65-.17.07,0,.2,0,.26.12s-.08.29-.08.31c0,.29.21.4.53.4.06,0,.06,0,.08.06a.27.27,0,0,1,0,.11c0,.06,0,.06,0,0-.49-.21-.72,0-.72.25a.61.61,0,0,0,0,.19c-.2.14-.24.4.1.62,0-.08,0-.29.13-.33l0,0a.67.67,0,0,1,.16.13s.11,0,.27-.11a.19.19,0,0,1,.15,0l.15.1s0,.06,0,.09c-.36.33-.3.65.15.73.07,0,.09,0,.09.1,0,.64-.88.52-.85-.11-.46.73.37,1.29,1,.92,0,0,.06,0,.06,0a.32.32,0,0,0,.22.25.14.14,0,0,1,.15-.13s0,0,0,.06a.36.36,0,0,0,.3.4c0-.13,0-.25.08-.25a7.23,7.23,0,0,0,1.5,1.37c.15-.06.43-.06.51-.27,0,.08.1.15.19.21,0,.42.3,1,.22,1a8,8,0,0,0-1.88.08c-.43.23-1.45.59-1.75.17-.12-.16-.08-.27-.21-.52a.63.63,0,0,0-.34-.27h-.24a.64.64,0,0,0-.73-.08.49.49,0,0,1,.41.25c0,.08-.1.19-.12.19-.08.17,0,.38.64.61,0,0,.08.06,0,.08a.33.33,0,0,1-.37,0c-.26-.21-.3-.48-.6-.31l-.21.1-.08,0c-.28,0-.73.34-.54.69a.59.59,0,0,1,.38-.33c0,.1.06.19.06.23.07.33.2.58.89.14.08,0,.08,0,.06,0-.16.29-.63.6-.28.81l.15.14a.06.06,0,0,0,0,0,.61.61,0,0,0,.58.67.72.72,0,0,1-.22-.6c.09,0,.18.08.2,0,.34-.12.17-.5.38-.65,0,0,.09,0,.09.06a.46.46,0,0,0,.49.5.54.54,0,0,0,.51-.56s0-.06,0,0a.4.4,0,0,1,.18.42.68.68,0,0,0,.3-.27.6.6,0,0,1-.16.67,1,1,0,0,0,.63-.65.51.51,0,0,1,.14.21s0,0,0,0a1.43,1.43,0,0,0,.81,0s0,0,0,0a.63.63,0,0,0,0,.4s.12-.21.18-.21,0,.41.19.62c.1-1,1.28-.48,1.91-.88.06-.06.08,0,.06,0a.61.61,0,0,1-.28.33,1.45,1.45,0,0,0,.83-.31s-.06.06-.08.08l1-.46a1.68,1.68,0,0,0,.06-.29,2.63,2.63,0,0,1,.34-.08s0,0,0,0c.67,0,.59-.5.86-.46,3.67.5,1.57-1.58,5.91-1.15.21,0,.3-.08.49-.25-.23.42-.23,1.13.2,1.19a1.62,1.62,0,0,1,.74.33,0,0,0,0,1,0,.08,2.05,2.05,0,0,0-.61.16c-.67.42-.71-1-1.42-.73l-.19.14c-.28,0-.67.33-.59.63a.71.71,0,0,1,.45-.27v.16c0,.13,0,.23.25.23s.18-.08.28-.08a.07.07,0,0,1,.08.08c0,.27-.88-.14-.71.61,0,0,.09.17.13.23,0,.21.15.42.57.31-.08-.06-.24-.15-.19-.25h.17s.08,0,.1-.12,0,0,0,0,.07,0,.07.08,0,.08,0,.13a1.18,1.18,0,0,0,.07.25c0,.29.37.56.76.29-.1,0-.35-.06-.39-.19a1.06,1.06,0,0,1,.18-.1c.08,0,.1-.15.1-.27s0-.06.08-.06l.18,0a.13.13,0,0,1,.14.06.43.43,0,0,0,.55.23c.48-.17.09-.58.46-.65a.3.3,0,0,1,.29,0c.35.09.93.06,1-.14a1,1,0,0,0-.36-1.08c-.24-.11,0-.4-.22-.75A3.83,3.83,0,0,0,180,173a2.66,2.66,0,0,0,1.75-.44,1.72,1.72,0,0,1,1.24-.12c.14,0,.26.08.22.25-.13.54.06.6-.06.83s-.56,0-.86,0a.35.35,0,0,0-.31.15.68.68,0,0,0-.58.6,1.24,1.24,0,0,1,.47-.23s0,.08,0,.09a.38.38,0,0,0,.67.23s.12,0,.08.06c-.21.15-.59.52-.27.65a.55.55,0,0,1,.17.1c0,.21.15.46.34.48-.06-.12-.08-.19,0-.44h.19c.22,0,.12-.44.37-.58,0,0,.06,0,0,0-.08.25-.13.56.11.63a1,1,0,0,0,.19,0,.43.43,0,0,0,.64.21.61.61,0,0,1-.3-.23.75.75,0,0,0,.15-.23c.18-.56-.29-.58-.29-.79s.55-.1.55-.67a.34.34,0,0,0-.26-.33v0c.16,0,.32,0,.4-.17-.41,0-.27-.33-.34-.56,0,0,0-.08,0-.1s.21-.25.17-.6c-.11.19-.57.42-.61,0,0,0,0-.29-.45-.21a15.38,15.38,0,0,1-2.44-.19c1.29-.1,3.65-.38,3.65-1.23" transform="translate(-44.77 -49.35)" />
    <path className="cls-1" d="M202.09,188.43h0m-3.39-5.27,0,0,0,0m-.18.79h0Zm.59,1c.1-.17.16-.31.23-.31s.24,0,.3-.17-.1-.23-.26-.33c.16-.06.26-.15.16-.23s-.26.08-.3,0,.08-.13.13-.19a.26.26,0,0,1,.24,0l.71.33c.08.08.13.12.13.21s0,.21,0,.23-.08-.21-.2-.23-.12.1,0,.25c-.17-.06-.33-.15-.43,0a.36.36,0,0,0,.06.39c.07.06,0,.17-.06.35a.36.36,0,0,1-.49.25.4.4,0,0,1-.16-.56m.85-1.85c-.12.23-.36.38-.58.21s0-.27-.19-.61a2.89,2.89,0,0,0,.77.4m.55.31a5,5,0,0,0,.87.35c-.39.08-.32.23-.55.23s-.38-.35-.32-.58m16.26,4.19s0-.06,0-.08A.67.67,0,0,0,217,187c-.15.19-.62.4-.64,0,0,0,0-.27-.41-.19a19.56,19.56,0,0,1-2.63-.17c-.08,0-.15-.1,0-.12,1.29-.1,3.66-.29,3.66-1.11s-.79-1.14-3-1.14-9.18.83-9.18-.44c0-.81,2.32-.46,4.05-.42a.83.83,0,0,0,.5.31c2.91.83,6.22-1.35,8-.85-2.28-.79-3.72.59-5.91.13,1.28,0,2.64-.27,2.69-.62-1,.64-3.8-.44-5,.31a.67.67,0,0,0-.19.15c-2.14,0-4.75-.27-4.75,1,0,2.25,7.9.94,9.79.94s2.31.21,2.31.54c0,.56-1.9.69-3,.69-1.77,0-9.14-1-12.07-.08.16-.52.89-1.27.55-1.65a.7.7,0,0,0,.47-.58,1.12,1.12,0,0,0-.55-.27c.08-.14,0-.27-.14-.39s-.1-.33-.16-.36a2.77,2.77,0,0,0-.66-.48,2.3,2.3,0,0,0-.67-.17c-.08,0-.38.08-.41.06s-.34,0-.38.17a.89.89,0,0,0-.53-.23,1.17,1.17,0,0,0-.06.81c-.28,0-.56.69-.81.62.1.19.17.27.25.29-.21.38-.31.88-.57.88.15.21.28.35.38.37,0,.21-.06.44-.06.63l-.39-.12a3.23,3.23,0,0,0-.36,0,3.09,3.09,0,0,0-.35-.08c-.36,0-.64-.62-1.24-.94-.43-.25-.45-.48-.45-1s.17-.73.16-1.1a1.24,1.24,0,0,0-.12-.35.62.62,0,0,0-.59-.4.6.6,0,0,1,.23.4l-.17.21a.3.3,0,0,0,0,.4.08.08,0,0,1,0,.08,1,1,0,0,1,0,.17c0,.08,0,0-.06,0-.09-.27-.22-.67-.48-.71h-.19s0,0,0-.06c0-.27-.32-.52-.65-.17.09,0,.22,0,.28.14a1.66,1.66,0,0,0-.08.27c0,.31.19.42.51.42.06,0,.08,0,.1.08s0,.08,0,.12,0,0-.07,0c-.49-.21-.72,0-.72.25a.72.72,0,0,0,0,.21c-.18.12-.22.38.12.6,0-.1,0-.29.11-.33h.06a.49.49,0,0,0,.15.1c.06,0,.11,0,.29-.1a.35.35,0,0,1,.14,0s.08.06.14.1,0,.06,0,.09c-.36.35-.3.67.17.75a.09.09,0,0,1,.07.1c0,.63-.88.52-.83-.11-.48.73.35,1.29,1,.9.06,0,.06,0,.08,0s.1.23.2.23a.16.16,0,0,1,.15-.13s0,0,0,.06c0,.19.08.4.3.42,0-.13,0-.23.08-.23a5.87,5.87,0,0,0,1.46,1.4c0-.08.35-.21.55-.33a.57.57,0,0,0,.32.42l.15-.1c-.06.44.45.86.35.86a3.84,3.84,0,0,0-1.3.06c-.41.25-1.46.6-1.76.19-.12-.17-.08-.31-.21-.54a.6.6,0,0,0-.34-.27h-.26a.57.57,0,0,0-.68-.08.54.54,0,0,1,.37.27.56.56,0,0,1-.1.19c-.09.14,0,.37.63.6,0,0,.1.06,0,.1a.34.34,0,0,1-.37,0c-.23-.19-.29-.5-.59-.31l-.22.1a.07.07,0,0,0-.06,0c-.3,0-.73.33-.53.69a.39.39,0,0,1,.35-.33,1.22,1.22,0,0,0,.06.19c.06.36.19.61.88.17.08,0,.08,0,.06,0-.15.29-.62.58-.28.81,0,0,.1.08.16.12s0,0,0,.08a.63.63,0,0,0,.57.65.74.74,0,0,1-.21-.6c.09,0,.17.08.19.06.34-.14.18-.54.38-.67,0,0,.08,0,.1.06s.08.54.5.5a.51.51,0,0,0,.49-.56s0,0,.06,0a.43.43,0,0,1,.17.44.92.92,0,0,0,.3-.31.67.67,0,0,1-.15.69.91.91,0,0,0,.62-.67.57.57,0,0,1,.14.23s0,0,0,0a1.35,1.35,0,0,0,.79,0s0,0,0,0a.68.68,0,0,0,0,.4s.12-.21.17-.21,0,.39.22.64c.08-1,.62-.6,1.26-1,.08,0,.08,0,.06,0a.64.64,0,0,1-.28.34c.22.17,1.14-.4,1.14-.77,0-.1.34-.14.65-.19.62,0,.55-.48.81-.44,3.7.5,1.57-1.6,5.91-1.15.21,0,.32-.27.49-.42-.21.42-.23,1.29.22,1.37a1.59,1.59,0,0,1,.72.29c0,.06,0,.08,0,.08a1.64,1.64,0,0,0-.61.17c-.67.44-.69-1-1.4-.75a1.29,1.29,0,0,0-.19.17c-.3,0-.67.33-.62.63a.62.62,0,0,1,.46-.29V189c0,.15,0,.25.25.25s.2-.06.28-.06.1,0,.1.08c0,.27-.9-.13-.73.58a.68.68,0,0,0,.14.25c0,.21.15.42.55.31-.08-.06-.21-.15-.19-.27a.73.73,0,0,0,.17,0s.08,0,.1-.12,0,0,0,0,.09,0,.09.06-.07.08-.07.15,0,.21.09.23c0,.29.35.56.74.29-.12,0-.35-.08-.39-.19a1.4,1.4,0,0,0,.2-.1c.06,0,.08-.15.08-.25s0-.08.06-.08h.2c.1,0,.12,0,.14,0a.45.45,0,0,0,.55.23c.48-.17.09-.58.48-.67a.42.42,0,0,1,.27,0c.37.1.93.08,1-.1a1,1,0,0,0-.36-1.1c-.24-.09,0-.42-.2-.75a3.73,3.73,0,0,0,1.4.33,3.09,3.09,0,0,0,1.85-.41,1.68,1.68,0,0,1,1.28-.13c.1,0,.22.08.16.25-.16.54,0,.6-.14.83s-.54,0-.85,0a.33.33,0,0,0-.31.15.72.72,0,0,0-.62.58,1,1,0,0,1,.49-.23v.09a.38.38,0,0,0,.65.25s.12,0,.08,0c-.23.15-.64.52-.32.65a.66.66,0,0,0,.16.08.43.43,0,0,0,.29.5c-.06-.13-.06-.21.07-.44h.17c.24,0,.15-.44.43-.59,0,0,.06,0,0,0-.1.27-.19.6,0,.65a1.06,1.06,0,0,0,.18.06c.06.19.29.35.61.17-.06,0-.21-.1-.25-.21s.17-.21.19-.23c.22-.58-.26-.58-.23-.79s.55-.1.59-.67a.28.28,0,0,0-.2-.31l0,0c.16,0,.32,0,.43-.19-.43,0-.27-.31-.31-.54" transform="translate(-44.77 -49.35)" />
    <path className="cls-1" d="M200.45,194c-.26,0-.36-.35-.3-.58a3.71,3.71,0,0,0,.83.34c-.38.1-.3.25-.53.23m-.37.48c-.09,0-.06-.19-.2-.23s-.1.09,0,.25c-.17-.06-.32-.16-.41,0a.32.32,0,0,0,.06.35c.06.06,0,.19,0,.33s-.25.38-.49.25a.39.39,0,0,1-.13-.54c.08-.16.13-.25.21-.25s.24,0,.28-.17-.1-.25-.24-.35c.16,0,.24-.12.16-.17s-.26.06-.28,0,.06-.15.12-.19.12-.06.22,0l.68.33c.09,0,.14.08.12.17s0,.19,0,.23m-.43-1.29c-.13.17-.36.33-.56.16s0-.23-.17-.6a3.27,3.27,0,0,0,.73.44m7,.14c.06.15.21.27.51.36,2.78.79,5.92-1.29,7.6-.83-2.18-.75-3.54.56-5.65.16,1.22,0,2.52-.29,2.58-.62-.94.65-3.62-.4-4.77.31-.08,0-.11.08-.17.12-1.52,0-2.76,0-2.76,1,0,2.16,5.75.9,7.57.9s1.57.19,1.57.52c0,.52-2,.65-3.07.65-1.56,0-6.26-.81-9.12-.25.23-.46.75-1.08.47-1.4a.65.65,0,0,0,.43-.56.92.92,0,0,0-.53-.23c.1-.14,0-.27-.13-.37s-.08-.35-.13-.38a2.4,2.4,0,0,0-.63-.4,1.46,1.46,0,0,0-.64-.21,2.28,2.28,0,0,0-.4.06c-.15,0-.34,0-.35.17a.92.92,0,0,0-.49-.23,1,1,0,0,0-.08.77c-.26,0-.52.67-.75.6.08.17.15.27.23.27-.21.4-.31.85-.53.87a.66.66,0,0,0,.22.25,3.35,3.35,0,0,0-.16.81l-.23-.08h-.12a2,2,0,0,1-1.12-.35c-.43-.23-.43-.44-.43-.88s.17-.71.15-1.06a2.41,2.41,0,0,0-.1-.35.63.63,0,0,0-.6-.35.42.42,0,0,1,.24.35c-.08.12-.16.19-.16.21s-.14.25,0,.37a.1.1,0,0,1,0,.1,1,1,0,0,0,0,.15c0,.1-.07,0-.07,0-.1-.25-.21-.63-.47-.65a.4.4,0,0,0-.15,0V193c0-.29-.3-.5-.62-.17.07,0,.2,0,.26.13a1.1,1.1,0,0,0-.1.27c0,.27.21.38.51.38.06,0,.06,0,.08.06s0,.08,0,.14,0,0-.06,0c-.47-.21-.66,0-.69.23,0,0,0,.13,0,.19-.18.12-.24.39.1.58,0-.1,0-.27.1-.31l.08,0c0,.06.12.13.12.15s.12,0,.27-.12a.1.1,0,0,1,.12,0,.71.71,0,0,1,.16.12s0,.06,0,.08c-.32.31-.28.63.15.69a.13.13,0,0,1,.06.14c0,.58-.83.46-.79-.15-.43.71.34,1.23,1,.9,0-.06,0,0,0,0s.1.23.21.23a.14.14,0,0,1,.13-.13c.06,0,.06,0,.06.08a.33.33,0,0,0,.27.36c0-.1,0-.23.09-.23s.09-.25.85.13a.41.41,0,0,0,.27.29l.54-.1c-.06.42.06,1.06,0,1.06s-1-.12-1.24.06-1.4.56-1.67.16c-.12-.14-.09-.27-.2-.5a.6.6,0,0,0-.34-.25h-.23a.59.59,0,0,0-.67-.08.46.46,0,0,1,.37.25c0,.06-.08.17-.1.19s0,.35.59.56c0,0,.08.08,0,.1a.35.35,0,0,1-.36,0c-.23-.19-.27-.44-.57-.29a.78.78,0,0,1-.19.1.13.13,0,0,0-.09,0c-.27,0-.68.33-.49.65a.46.46,0,0,1,.34-.29,1.68,1.68,0,0,1,.06.19c.06.33.2.58.85.13.08,0,.08,0,.06,0-.16.29-.57.54-.25.77a.59.59,0,0,0,.15.12.1.1,0,0,0,0,.08.59.59,0,0,0,.55.61.74.74,0,0,1-.21-.56c.1,0,.17.06.21,0,.32-.12.16-.5.33-.62s.08,0,.08,0,.11.52.47.5a.5.5,0,0,0,.5-.54s0,0,0,0a.42.42,0,0,1,.17.42.81.81,0,0,0,.28-.29.56.56,0,0,1-.16.65.83.83,0,0,0,.61-.63.52.52,0,0,1,.14.21s0,0,0,0a1.13,1.13,0,0,0,.73,0s.06,0,.06,0a.4.4,0,0,0,0,.37s.11-.19.16-.19,0,.37.21.6c.09-1,.85-.71,1.44-1.11.06,0,.06,0,.06,0a.58.58,0,0,1-.26.31c.64.41,1.31-.48,1.5-1a.73.73,0,0,0,.15-.19c.07.09.07.19-.1.31.62,0,.55-.46.79-.44,1.88.15.45-1.58,3.44-1.06a1.08,1.08,0,0,0,.75-.33c-.21.4-.23,1.23.2,1.29a2.21,2.21,0,0,1,.71.29c0,.06,0,.08,0,.08a1.26,1.26,0,0,0-.59.17c-.63.4-.65-1-1.34-.71,0,0-.14.08-.18.14-.27,0-.64.31-.57.6a.63.63,0,0,1,.43-.25c0,.06,0,.15,0,.15s0,.23.26.23.17-.08.27-.08a.07.07,0,0,1,.08.08c0,.25-.85-.13-.7.58,0,0,.08.15.13.19,0,.21.15.42.53.31-.08,0-.19-.15-.17-.25a.52.52,0,0,0,.15,0s.08,0,.08-.1,0-.06.07-.06.08.06.08.08-.06.08-.06.13a1.26,1.26,0,0,0,.06.23c0,.27.36.54.73.29-.11,0-.36-.08-.37-.21a1.63,1.63,0,0,0,.17-.08c.06,0,.08-.13.08-.25s.06-.06.08-.06a.6.6,0,0,0,.18,0c.08,0,.1,0,.12.06a.43.43,0,0,0,.54.21c.45-.15.06-.58.43-.63a.42.42,0,0,1,.27,0c.36.08.88.06,1-.1a.93.93,0,0,0-.36-1c-.22-.11,0-.38-.18-.73a3.05,3.05,0,0,0,1.35.35,3.54,3.54,0,0,0,1.92-.42,1.68,1.68,0,0,1,1.22-.11c.12,0,.22.08.12.25-.22.5-.09.56-.26.77s-.53.06-.81,0a.78.78,0,0,0-.34.12.9.9,0,0,0-.64.59.87.87,0,0,1,.49-.23.38.38,0,0,1,0,.1c-.06.35.29.46.57.23,0-.06.14,0,.06,0-.23.17-.68.5-.43.63a.5.5,0,0,1,.18.08c-.09.21,0,.44.19.46,0-.11,0-.19.14-.4h.16c.21,0,.23-.44.51-.58,0,0,.06,0,0,0-.15.27-.28.56-.06.62l.15.06c0,.19.24.33.58.17-.08,0-.22-.12-.22-.21l.22-.21c.27-.56-.16-.56-.12-.77s.53-.08.68-.61a.28.28,0,0,0-.13-.33s0,0,0,0,.3,0,.43-.17c-.4,0-.2-.31-.2-.52a.08.08,0,0,1,0-.08.66.66,0,0,0,.32-.58c-.15.17-.64.39-.61,0,0,0,.06-.25-.36-.19a21.65,21.65,0,0,1-2.82-.17c-.08,0-.14-.08,0-.1,1.22-.08,3.74-.29,3.74-1.08,0-.63-.11-1.08-2.26-1.08s-7,.79-7-.42c0-.58.92-.52,2.07-.46" transform="translate(-44.77 -49.35)" />
    <path className="cls-1" d="M197.92,204.9c.08-.14.13-.23.22-.23a.23.23,0,0,0,.25-.17c.06-.15-.08-.23-.23-.31.15-.06.23-.11.15-.19s-.24,0-.26,0,.09-.14.11-.17a.17.17,0,0,1,.21,0l.65.29c.06.06.12.08.12.17s0,.19,0,.21-.06-.19-.18-.21-.1.08,0,.23c-.15-.06-.29-.13-.37,0s0,.19.07.31a.37.37,0,0,1,0,.31c-.07.14-.24.39-.48.25a.4.4,0,0,1-.13-.52m.79-1.64c-.11.17-.35.33-.51.15s0-.21-.2-.54a2.55,2.55,0,0,0,.71.39m.47.25a3,3,0,0,0,.79.33c-.37.08-.28.21-.51.19s-.34-.29-.28-.52m5.18-.23a.77.77,0,0,0,.51.37c2.76.77,5.91-1.29,7.6-.83-2.18-.77-3.56.58-5.65.13,1.22,0,2.52-.25,2.58-.58-.94.64-3.63-.44-4.77.27a1,1,0,0,0-.21.19c-.85.19-1.58.65-1.58,1.29,0,1.81,7.07.37,7.07,1s-1.37.94-3.23.94c-1.41,0-3.86-.92-6.91-.15v0c.21-.52.85-1.29.57-1.64a.64.64,0,0,0,.43-.52,1,1,0,0,0-.49-.23c.06-.13,0-.25-.14-.36s-.08-.31-.14-.35a2.34,2.34,0,0,0-.59-.39,3.12,3.12,0,0,0-.64-.19,1.88,1.88,0,0,0-.35.08c-.14,0-.32,0-.34.13a1.15,1.15,0,0,0-.45-.21.84.84,0,0,0-.08.75c-.25,0-.49.61-.73.54.11.19.18.27.24.29-.2.36-.3.79-.53.81a1.43,1.43,0,0,0,.25.25,5.31,5.31,0,0,0-.12,1.73,10.51,10.51,0,0,0-1.52-1.73c-.4-.23-.41-.44-.41-.85s.18-.67.14-1c0,0-.07-.25-.09-.35a.58.58,0,0,0-.55-.35.43.43,0,0,1,.22.37,2.1,2.1,0,0,0-.16.17.25.25,0,0,0,0,.36s0,0,0,.08a.53.53,0,0,1,0,.16c0,.08,0,0,0,0-.1-.25-.21-.62-.43-.64h-.17a.07.07,0,0,0,0-.06c0-.27-.3-.44-.61-.15.08,0,.22,0,.24.11a2,2,0,0,0,0,.29c0,.23.17.35.45.35,0,0,.08,0,.08.06s0,.06,0,.1,0,.06,0,0c-.47-.19-.67,0-.69.23a.85.85,0,0,0,0,.19c-.15.1-.19.35.11.52,0-.1,0-.25.1-.29a.13.13,0,0,0,.08,0l.11.11s.13,0,.28-.1.06,0,.1,0l.14.1s0,.06,0,.06c-.32.33-.26.61.13.69a.09.09,0,0,1,.1.08c-.06.58-.81.48-.77-.11-.41.67.34,1.17.89.85,0,0,.07,0,.07,0a.23.23,0,0,0,.19.19s0-.12.11-.14,0,0,0,.08a.37.37,0,0,0,.28.39c0-.12,0-.25.06-.25s0,.9.83,1.37a.92.92,0,0,0,1,.71c.12.35.34.67.27.67a4.65,4.65,0,0,0-1.36,0,2.57,2.57,0,0,1-.9.29l-.06.08a.24.24,0,0,0,.06-.08.69.69,0,0,1-.69-.13c-.1-.14-.06-.27-.17-.48a.7.7,0,0,0-.3-.25h-.24a.58.58,0,0,0-.63-.08.61.61,0,0,1,.36.23,2,2,0,0,1-.1.21c-.09.14,0,.33.55.52,0,0,.09.06,0,.08a.27.27,0,0,1-.32,0c-.23-.19-.27-.44-.55-.29l-.18.1-.08,0c-.25,0-.66.29-.47.61a.45.45,0,0,1,.32-.29.61.61,0,0,0,.08.19c0,.31.17.54.79.13.08,0,.08,0,0,0-.14.25-.55.5-.24.73,0,0,.09.06.14.08a.14.14,0,0,0,0,.08.56.56,0,0,0,.51.59.58.58,0,0,1-.17-.54.45.45,0,0,0,.17.06c.3-.11.15-.5.34-.6s.06,0,.06,0,.1.5.45.46a.48.48,0,0,0,.47-.5s0,0,0,0a.32.32,0,0,1,.18.38.55.55,0,0,0,.25-.27.45.45,0,0,1-.13.59.78.78,0,0,0,.57-.59.4.4,0,0,1,.12.23l0,0a1.09,1.09,0,0,0,.71,0,0,0,0,0,1,.06,0,.47.47,0,0,0,0,.37s.1-.19.16-.19,0,.35.2.56c.08-.9.55-.54,1.11-.92.09,0,.09,0,.06.06a.45.45,0,0,1-.25.29c.23,0,.86-.27.86-.61a3.57,3.57,0,0,0,.51-1.54h.24c.75-.06,1.1-.59,1.85-.65a2,2,0,0,0-.23,1.1c0,.4.53.86.68,1s0,.06,0,.06a1.63,1.63,0,0,0-.53.15c-.63.41-.63-.9-1.28-.67a1.65,1.65,0,0,0-.18.15c-.25,0-.61.29-.55.56a.62.62,0,0,1,.41-.23V210c0,.12,0,.21.24.21s.15-.06.25-.06a.07.07,0,0,1,.08.08c0,.25-.8-.14-.65.54,0,0,.08.13.1.19,0,.21.16.42.51.31-.08-.06-.19-.13-.17-.27l.15,0s.09,0,.11-.1,0,0,0,0,.06,0,.06.08a.23.23,0,0,0-.06.15s0,.17.08.19c0,.25.32.5.66.25-.08,0-.31,0-.33-.15l.16-.08c.06,0,.08-.15.08-.25s0-.08.06-.08h.18c.08,0,.1,0,.11.06a.4.4,0,0,0,.49.21c.43-.13.09-.54.41-.62a.74.74,0,0,1,.28,0c.34.08.61.16.69,0a.91.91,0,0,0-.32-1c-.22-.1.32-1.46-.73-2.1.49.12,2,.35,2.33,0a2.61,2.61,0,0,1,1.06.54c.07.1.11.19,0,.27-.41.25-.35.4-.57.48l0,0a3.55,3.55,0,0,0-.41-.42.32.32,0,0,0-.34,0,.57.57,0,0,0-.65.27.77.77,0,0,1,.48,0,.56.56,0,0,0,0,.14c0,.06,0,.13.1.21l0,0s0,.06,0,.06c-.24,0-.69-.06-.58.21a1.61,1.61,0,0,0,0,.17.43.43,0,0,0-.1.54c0-.12.06-.17.28-.27a.53.53,0,0,1,.11.13c.14.14.38-.21.64-.13,0,0,0,0,0,.06-.24.1-.47.25-.37.44a1.1,1.1,0,0,0,.08.17.38.38,0,0,0,.28.52.5.5,0,0,1,0-.33l.27,0c.45-.23.16-.56.32-.69s.39.27.77-.06a.35.35,0,0,0,.08-.37s0,0,0,0,.2.23.37.15c-.28-.25,0-.37.13-.56,0,0,0-.06.09,0a.56.56,0,0,0,.49-.25c-.2,0-.73-.29-.41-.4.47-.17.57-.44.36-.69-.37-.48-1.14-.52-1.16-1.08h.7c2.39,0,3.9-.67,3.87-1.42-.08-1.62-7.23.13-7.23-1,0-.35.45-.64,1-.81" transform="translate(-44.77 -49.35)" />
    <path className="cls-1" d="M88.61,78.72a1.72,1.72,0,1,0-1.73,1.73,1.73,1.73,0,0,0,1.73-1.73" transform="translate(-44.77 -49.35)" />
    <path className="cls-1" d="M88,74.11a1.74,1.74,0,1,0-1.74,1.75A1.74,1.74,0,0,0,88,74.11" transform="translate(-44.77 -49.35)" />
    <path className="cls-1" d="M89,72.07a1.73,1.73,0,1,0-1.72-1.73A1.73,1.73,0,0,0,89,72.07" transform="translate(-44.77 -49.35)" />
    <path className="cls-1" d="M93.6,71.76A1.73,1.73,0,1,0,91.89,70a1.73,1.73,0,0,0,1.71,1.73" transform="translate(-44.77 -49.35)" />
    <path className="cls-1" d="M113.28,68.57a1.73,1.73,0,1,0,0-2.46,1.73,1.73,0,0,0,0,2.46" transform="translate(-44.77 -49.35)" />
    <path className="cls-1" d="M112.89,64.87a1.73,1.73,0,1,0-2.44,0,1.7,1.7,0,0,0,2.44,0" transform="translate(-44.77 -49.35)" />
    <path className="cls-1" d="M108.3,64.12a1.74,1.74,0,1,0-2.44,0,1.73,1.73,0,0,0,2.44,0" transform="translate(-44.77 -49.35)" />
    <path className="cls-1" d="M104.38,67a1.73,1.73,0,0,0,0-2.44,1.73,1.73,0,1,0,0,2.44" transform="translate(-44.77 -49.35)" />
    <path className="cls-1" d="M93.34,64.64l1.39,3,1.75-2.1a.77.77,0,0,0,.2.06,31.26,31.26,0,0,1,.21,3.77,2.21,2.21,0,1,0,3.25-1.94,17.52,17.52,0,0,1-2.44-2.29.66.66,0,0,0,.1-.27l2.94.25-1.14-3.1-2.21,1.85-.12-.06-.15-3.19-3,1.13,2,2.39a.6.6,0,0,0-.11.25Z" transform="translate(-44.77 -49.35)" />
    <path className="cls-1" d="M113.39,70a4.56,4.56,0,0,1,1,2.39,5.18,5.18,0,0,1-1.81-1.64l.38,4a3.48,3.48,0,0,1,1.43-1.46c-.13,2.64-1.2,3.71-2.09,3.89a1.7,1.7,0,0,1-2.07-1.33c-.21-1.17.79-1.9,1.82-.85.19-2.42-1.76-2.39-2.61-1.37,1-2.33.6-3.89-1.47-5.14-1.3,2.17-.75,3.62.88,5.27-1.6-.81-3,.56-1.6,2.35.3-1.56,1.65-1.21,2,0,.25,1.06-.75,2.42-2.48,2.94-2.48.75-3.29-.83-3.9-2.17.56-.36,1.84-.23,3.25.67l-1.2-3.94a4,4,0,0,1-2.36,2.39,12,12,0,0,1,.74-3.44l-4.76,1.92a12,12,0,0,1,3,1.94,4,4,0,0,1-3.37-.06L100,80.15c.4-1.64,1.22-2.62,1.86-2.77.49,1.4,1,3.1-1.26,4.31-1.6.83-3.27.56-3.85-.4s.11-2.29,1.38-1.4c-.22-2.25-2.19-2.23-2.78-.52,0-2.37-.57-3.77-3-4.44-.61,2.35.19,3.75,2.56,4.73-1.34-.15-2.78,1.19-1,2.81,0-1.48,1.25-1.65,1.91-.67a1.7,1.7,0,0,1-.55,2.4c-.77.48-2.27.44-4.21-1.35a3.68,3.68,0,0,1,2,0l-2.54-3.13a4.84,4.84,0,0,1-.15,2.42,4.22,4.22,0,0,1-1-2.37l-2,1.73A23,23,0,0,1,94,88a79.85,79.85,0,0,1,21.82-8.89,22.43,22.43,0,0,1,.17-9.18Z" transform="translate(-44.77 -49.35)" />
    <path className="cls-1" d="M118.87,93c-2.41,1.9-5.64.15-7.1-2.33a70.54,70.54,0,0,0,9.79-4.5c-2.4,3.67-.77,5.31-2.69,6.83m-.54,25.16c-3.11,1.37-5.53-1.38-6.15-3.25s-1.1-3.41-.38-4.12c1.37-1.35,1.78-2.37,1-4-1-1.9-3-1-5.17-.48,1-1.83,1.11-3.12-.28-2.94-1.65.17-1.69,2.87-2.6,2.54s-.41-1.85-.41-2.68c0-1.15.75-1.54,1.9-2.06l9-3.42c1.16-.42,2-.63,2.77.17.58.6,2,1.33,1.58,2.21s-2.32-1-3.64,0c-1.12.85-.14,1.71,1.86,2.33-1.93,1.11-4,1.89-3.35,3.9.57,1.77,1.58,2.21,3.46,2.21,1,0,1.76,1.48,2.61,3.25s1.13,5-2.19,6.39m-17.18-18.2c-2.42.21-2.36-2.12-6.64-3.14a75.77,75.77,0,0,0,10.22-3.41c.64,2.79-.51,6.25-3.59,6.54m50.26,80.35c.69-1.87-2.72-3.94-3.12-6.6s-.06-5.21-3.11-8.77-13.36-14.56-16.47-18.08a5,5,0,0,1,4.55,1.29c1.1,1.08,3.33,3.17,5.4,5.21a55.57,55.57,0,0,1,11-17.7c.61-.69,1.24-1.37,1.89-2-1.79.52-4.53.94-6.13,2-.14-3,.1-5.5-2-7.45.79-4.25.1-9.41-9.46-15.74,4.89,1.15,7.76,5.6,11.5,2.21-3.35-.1-3.43-7.41-15.51-13.5,4.63-.1,8.23,7.37,13.57,3.13-5-.6-6.72-9.56-15.8-12.31,3.14.35,6.41,1.89,9.1-1.77-3.13.75-5-2.17-8.39-2.44,1.28-3.92,1-6.33-.39-9.25a11.7,11.7,0,0,0-6.54,2.31c-.26-2.15-2.54-2.27-4.53-2.12.1.92.55,2.29-.47,2.48a84.66,84.66,0,0,0-11.21,3.37A60.72,60.72,0,0,0,95,90.11c-.85.56-1.57-.79-2.09-1.42-1.47,1.25-2.91,2.87-1.83,4.5A13,13,0,0,0,84,95.73c0,2.69,2.22,5.31,5.55,6.77-5.61,5.58-.53,10.74-5.47,15.6,7,.25,5.75-9.43,9.25-10.77-.37,6.81-4.15,8-4.15,15.35,0,3.93,2.33,8.16.24,10.75,5.81-1.6,4.27-14.45,7.9-18.33a10.68,10.68,0,0,1-.49,6.56c-2,6,.23,14.2-2.93,16.85,5.95-.58,6.64-10.1,11.52-13.58-4.19,8.58-8.51,26.8-14.75,36-10.13,13.64-16.05,30.26-25.34,30.26-4.1,0-7.16-2.5-7.16-7.65,0-15.52,26.59-26.18,26.59-42.71A9.83,9.83,0,0,0,75,130.61,13.73,13.73,0,0,0,66.86,134a9.09,9.09,0,0,0-3.14-.69c-9.4,0-6.9,16.91-15.09,16.74,3.25,1.83,8.87-1.71,12.16-6.44-1.38,10.95-17.16,8-16,21.2C47.06,154.46,72.2,156,72.2,140.34a6,6,0,0,0-2.16-4.4,9.63,9.63,0,0,1,5.32-1.65c3,0,5.75,2.23,5.75,6.68,0,13.85-26.44,25.53-26.44,42.53a11.92,11.92,0,0,0,2.18,7.12,4.39,4.39,0,0,1-5.36-1.44c-.15,4.39,6.09,7.14,10,5a11.83,11.83,0,0,0,2.76.54c-1.2,3.25-5.24,4.23-7.37,4.08,6.49,5.1,17.78-1.6,17.17-7.37,5.15-4.15,8.4-11.27,12.14-15.93-.24,1.1-.43,2.15-.59,3.23-3.81,6.89-7.35,13.06-8.34,22.16-.83,7.6-4.67,14.43-10,14.43-1.18,0-3.12-1.52-4-.77-1.65,1.44-.08,2.94-.08,4.37,0,2.15-4.17,4.31-4.17,11,0,3,1.75,6.6,1.1,8.6,1.7-.9,4-3.73,4.91-7.43,1.82,8.81-3.76,8.45.26,16.26.49-2.6,3.1-3.65,4.66-2.6s.85,1.85-.33,3-2.25,7,3.09,6.68c-1-.65-1.06-2.21,1.58-2.75,3.68-.75,4.75.94,8.67.94,2.42,0,3.1-3.17,5-3.17s1.91,1.5,1.24,2.6c3.1-.85,3.67-2.5,3.67-4.27s-1.41-2.83-.34-3.48,4.67.08,3.25,3c1.86-.31,2.84-1.65,2.84-3.92s-2.58-3.58-5-3.16c-.43-1.42-2.52-2.17-4.43-2.17-4.33,0-3.66,3.42-6.64,3.42-4.76,0-9.38-6.18-9.38-16.62,0-5.6,6-7,10.26-8.83S95.19,209.52,99.64,202c3.5-5.85,3.6-12.29,3.15-19.91,6,3.44,6.7,8.39,6.7,12,0,4.66-2.4,6.54-4.32,7.43-1.62.73-2.15.42-2.32,1.38a2.09,2.09,0,0,0,1.28,2.25c2.16,1.1,1.73,3.17,2.32,5.43a17.38,17.38,0,0,0,6,8.37,24.34,24.34,0,0,0,.06-6.52c4.61,2.29.9,11.52,9.87,11.52-1.65-.92-1.22-3.37-.28-3.71s2.17.6,3.9,3,1.26,2.23,5.49,2.23S133.79,224,136,224s2.09,2.6.89,4.48c3.76-1.13,4.9-4,3.62-6.94,3.33-1.81,5.11.75,5.6,2.56,3.27-3.27,0-7.25-2.58-7.5a2.63,2.63,0,0,0-2.42-2.6,38.16,38.16,0,0,0-4.21-.08c-1.56.08-2.42,2.31-4.24,2.31-5.61,0-16.7-10.14-16.7-14.54s10.59-7.08,10.59-13.89c0-8.93-8.76-12-16.13-17.68,2.64-2.94,10.3-3.63,14.66-1.52.49-2.48,2.09-1.87,2.68-6.14,1.56,3.77-.06,7,1.54,8.6,1.24-1.83,4.41-1.54,4.21-6.21,1,2.9-1.24,7.39,1,9.33.39-2.41,1.81-2.85,2.71-2.85s1.69.65,1.69,2.06c0,3.58-4.38,1.92-4.38,5.92,0,1.69,2.14,2.27,2.14,3.39s-1.75,2.77-3.9,1.33a4.6,4.6,0,0,0,4,2.94,5.68,5.68,0,0,0,4.83-3.58c1,2.58.25,5.39-1.6,5.75,2,1,6.54.08,6-5.83,2.6.44,3.93,2.19,2.4,5.33,2.15-.52,4.1-1.56,4.1-3.83,0-1.75-1.9-2.29-1.06-4.54" transform="translate(-44.77 -49.35)" />
    <path className="cls-1" d="M322.78,223a5.56,5.56,0,1,1,5.58,5.54,5.57,5.57,0,0,1-5.58-5.54m-1.9,0a7.47,7.47,0,1,0,7.48-7.5,7.49,7.49,0,0,0-7.48,7.5" transform="translate(-44.77 -49.35)" />
    <path className="cls-1" d="M296.37,236.55c-2.15-.4-3.65-2-3.35-3.56a2.5,2.5,0,0,1,1-1.54,4.61,4.61,0,0,1,3.33-.59c1.93.33,3.4,1.75,3.4,3.17a2.29,2.29,0,0,1,0,.36c-.28,1.56-2.25,2.52-4.38,2.16M293,229.89a4.2,4.2,0,0,0-.69,6.5,6.45,6.45,0,0,0,3.74,2,6.63,6.63,0,0,0,4.21-.59,4.32,4.32,0,0,0,2.37-3.08c.49-2.62-1.71-5.19-4.89-5.77a6.36,6.36,0,0,0-4.74.92" transform="translate(-44.77 -49.35)" />
    <path className="cls-1" d="M251.39,129.38a3.8,3.8,0,0,1,1.6-2.85,3.85,3.85,0,0,1,2.84-.89,2,2,0,0,1,1.38.75,2,2,0,0,1,.37,1.54,3.84,3.84,0,0,1-1.55,2.52c-1.46,1.15-3.4,1.21-4.24.15a2.09,2.09,0,0,1-.4-1.23m.41-4.37c-2.32,1.81-3,4.85-1.51,6.77s4.59,2,6.91.19a5.74,5.74,0,0,0,2.29-3.79,4.07,4.07,0,0,0-.77-3,3.87,3.87,0,0,0-2.65-1.48A6,6,0,0,0,251.8,125" transform="translate(-44.77 -49.35)" />
    <path className="cls-1" d="M287.06,227.87m.06-1.92h0a2.3,2.3,0,0,1-1.67-.79A4.47,4.47,0,0,1,284.3,222a4.37,4.37,0,0,1,1.25-3.1,2.24,2.24,0,0,1,1.71-.75c1.6,0,2.84,1.81,2.79,4a4.51,4.51,0,0,1-1.24,3.16,2.35,2.35,0,0,1-1.69.71m-2.91-8.48a6.45,6.45,0,0,0-1.83,4.46v.15a6.27,6.27,0,0,0,1.67,4.41,4.15,4.15,0,0,0,3,1.38,4.41,4.41,0,0,0,3.1-1.25,6.74,6.74,0,0,0,.57-8.54,4.43,4.43,0,0,0-3.42-1.9,4.5,4.5,0,0,0-3.1,1.29" transform="translate(-44.77 -49.35)" />
    <path className="cls-1" d="M249.12,164.37c-2-.94-3-2.85-2.29-4.29a2.36,2.36,0,0,1,1.42-1.19,4.35,4.35,0,0,1,3.37.29,4.59,4.59,0,0,1,2.35,2.44,2.48,2.48,0,0,1-.07,1.87,2.34,2.34,0,0,1-1.41,1.19,4.54,4.54,0,0,1-3.37-.31m-1.5-7.31a4.39,4.39,0,0,0-2.5,2.17c-1.14,2.41.28,5.48,3.17,6.85a6.37,6.37,0,0,0,4.82.4,4.29,4.29,0,0,0,2.53-2.19,4.35,4.35,0,0,0,.11-3.31,6.26,6.26,0,0,0-3.31-3.52,6.46,6.46,0,0,0-4.83-.4" transform="translate(-44.77 -49.35)" />
    <path className="cls-1" d="M301.79,191.11c-1.22,1.73-3.31,2.35-4.67,1.38s-1.45-3.16-.23-4.87,3.31-2.35,4.66-1.38,1.46,3.16.24,4.87M293,205c-1.24,1.71-3.33,2.35-4.68,1.38s-1.48-3.13-.24-4.87,3.29-2.35,4.65-1.4,1.47,3.15.27,4.89m-30.21-76.14c1-3.25,3-9.68,3-9.68l3.39,1.31a12.27,12.27,0,0,0-3.25,2.33,3.58,3.58,0,0,0,3.08-.23L267.66,126a4.46,4.46,0,0,0-2.21-2c-.71,2.75,1,3.75,2.27,4.4,2.07,1.06,3.4,1.21,4,.27.65-1.17-.7-2.81-2.46-2.08-.17-1.79.83-2.73,2-2.73,1,0,1.69.85,2,2-.12-2.91,1.18-5.16,3.84-6,1,2.81.18,4.69-1.92,6.75,1.1-.46,2.36-.39,2.89.38.64,1,.41,2.33-1.16,3.17a1.72,1.72,0,0,0-3.14-.81c-.61,1.17.32,2.33,2.23,3.39,2.2,1.21,4,.5,5.16-1.44a4.1,4.1,0,0,0-3.18.66l2.27-4.23a4.19,4.19,0,0,0,1.42,2.48,5.55,5.55,0,0,0,.14-4.1L286.6,129a5.46,5.46,0,0,0-3.47,2.17,4.44,4.44,0,0,0,2.86,0l-2.54,4.06a4.06,4.06,0,0,0-1-3.08c-1.07,2-.83,3.91,1.34,5.21,1.89,1.12,3.33,1.35,4.06.23a1.72,1.72,0,0,0-2.27-2.31c-.06-1.79,1-2.68,2.15-2.6,1,.06,1.64,1.11,1.82,2.31.68-2.85,2-4.5,4.87-5,.6,2.71-.69,5-3.25,6.31a2.2,2.2,0,0,1,2.69.67c.6,1,.28,2.37-1.36,3.1-.24-1.87-2.35-2.25-3-1.1-.54,1,.29,2.06,2.24,3.33,1.18.75,2.91,1.75,4.94-.23a4.4,4.4,0,0,0-2.84-.94l2.27-2.87a3.53,3.53,0,0,0,1.36,2.77,11.22,11.22,0,0,0,.35-4l2.86,2.29s-4.59,4.92-6.88,7.44Zm36.6,41.53a2.19,2.19,0,0,1,.71-1.69,2.42,2.42,0,0,1,1.75-.64,4.58,4.58,0,0,1,3,1.5,4.47,4.47,0,0,1,1.3,3.14,2.5,2.5,0,0,1-.7,1.69v0a2.5,2.5,0,0,1-1.76.58,4.74,4.74,0,0,1-4.33-4.6M312.76,232a4.69,4.69,0,0,1,2-2.75,4.38,4.38,0,0,1,3.29-.73,2.26,2.26,0,0,1,1.88,2.81,4.42,4.42,0,0,1-2,2.73c-1.81,1.21-4,1.1-4.87-.23a2.5,2.5,0,0,1-.32-1.83m-63.7-92.76a3.93,3.93,0,0,1-1.14,2.64,2.1,2.1,0,0,1-1.43.56c-1.24-.08-2.23-1.52-2.23-3.19v-.29a3.89,3.89,0,0,1,1.14-2.62,2.1,2.1,0,0,1,1.46-.54,2,2,0,0,1,1.37.69,3.8,3.8,0,0,1,.83,2.75m19.72-40.5c1-2,0-5,3.64-5,1.8,0,3.39,1.81,5.56,2.5a22.61,22.61,0,0,0-9.21,2.54m57.4,50.67c2.44,6.68,7.27,9.08,11,7.37-8.25-1-1.58-15.06-12.2-15.06a8,8,0,0,0-1.71.17,8.62,8.62,0,0,0-6.9-2.69c-4.51,0-12.23,4.33-12.23,13.29,0,19.28,22.38,21,22.38,38a7.82,7.82,0,0,1-8,8.08c-3.77,0-6.8-4.23-10-10.85-1.51-3.16-4.76-7.46-8.21-12a5.91,5.91,0,0,0,3.31,1.17,4.19,4.19,0,0,0,4.43-4.15v-.19a6.66,6.66,0,0,0-6.21-6.4,4.26,4.26,0,0,0-3.12,1.13,4.31,4.31,0,0,0-1.32,3v.15a5.51,5.51,0,0,0,.38,2c-4.83-6.29-9.32-12.47-9.32-15.85,0-3,2.07-5.62,4.62-8.77l.88.5.66-.75c.89-1,2.78-3.06,6.65-7.19l.23-.25,0,0,.92-1-2.4-1.94a29.78,29.78,0,0,0,1.62-4.71c.75,3.08,2.33,5.06,4.53,4.43-1.45-3.21,1.48-7.48-.45-15.33,1.84,3,4.47,4.64,6.37,4.06-5-4.39,1.47-10.5-5-20,2.13.73,3.52.31,4.45-.73-5.9-.83-3.21-8.35-13.55-11,2.58-.46,4.07-2,3.7-3.31-2.74,2-5.13-3.67-14.11-3.54-.53-3.35-3.65-6.87-7.17-8.58a11.85,11.85,0,0,1-.63,6.89L250.61,56.64c-.85-.81-1.32-1-1.56-.71s-.21.83.32,1.42L274.47,88.8c-1.89.65-3.74,1.44-5.69,2.16a3.44,3.44,0,0,0-2.18,3.25,52.33,52.33,0,0,0-10.75,7c-1.56,1.38-2.78,1.73-1.42,4.91.51,1.19-1.08,4.15,2.54,2,2.39-1.42,7.78-4.41,8.59-2.52.41,1-2.24,2.25-4.08,2.93s-3.82,2.14-3.52,2.85,1.73-.06,1.83.69a1.65,1.65,0,0,0,1.42,1.58c.73,0,1.65-1.54,2.24-1s-.27,3.94-.87,4.81a5.67,5.67,0,0,0,4.75-5.16c.06-2.14.65-2.64,1.08-2.94s1,2.27.36,3.81c1.52-.33,3.08-2.31,2.86-5.95a4.17,4.17,0,0,1,2.11-1.08c1,0,2.84,2.66,5.54,2.66,5,0,7.74-4,8-5.91a5.49,5.49,0,0,0-.7-4.16,6.86,6.86,0,0,1,2.36,5.35c0,7-12.43,10.35-17.52,15.2-.2.19-.38.37-.58.54L265,117.52l-.39,1.31c0,.06-.08.29-.36,1.1-.59,2-1.87,6.18-2.64,8.56,0,0-.32,1-.32,1l.51.31c-3.46,4.6-6.24,9.75-6.88,15.06a45.73,45.73,0,0,0-4.25-3.89,7.47,7.47,0,0,0,.32-1.62,5.71,5.71,0,0,0-1.34-4.12,3.88,3.88,0,0,0-2.69-1.37,4,4,0,0,0-2.86,1.06,2.69,2.69,0,0,0-.49.54L243,135a50.89,50.89,0,0,1-5.77-4.83,2.87,2.87,0,0,0-2.52-1.06c-.49,0-1.73-.06-2.6-.06s-1.36.67-2.35,1.54c-.47.42-1.81,1.46-3.33,2.6.73.73,1.44,1.5,2.13,2.27.37.42.75.87,1.11,1.31l1-.79a3.17,3.17,0,0,1,4.69,1.06c.53.79,5.26,7,9.18,11.31-.45.14-.87.29-1.24.44-1.67.69-5.45.56-7.13.42s-2-.56-3.16,1.23a20.9,20.9,0,0,1-1.54,2.17c-.57.69-1,1.46.18,3.46,1.73,2.92,6,10.6,7.42,14s3.09,4,5.81,5.16a41.73,41.73,0,0,1,7.92,4.39L253,177c-.81-.81-3.41-1.77-4.4-2.14s-1.24-.79-.06-.79,4.45,1.19,6.73,2.12c-.68-2.6-3.15-5.44-4.64-7.06-2-.54-4-.54-4.77.06a1.07,1.07,0,0,1-1.1,1.25,1,1,0,0,1-1-1.37c.26-.79,1.42-1,1.16-2.54s-2.09-1.73-3.27-1.85c-1.67-2.42-3.61-5.93-4.45-7.37s-.36-2.23.24-2.71c1.43-1.17,4.39.6,10.34,1,2,.13,4.66.27,7.35.38.79,6.91,3.55,13.47,13.14,15.83,4.7,1.17,9.53,4.62,11.19,9.12-19.16-.35-22.18,7.12-22.18,14.2,0,8,6.76,7.56,6.76,13.56,0,5.25-16.12,7.41-21,8.12-4.14.62-6.5,1.54-8.47,3.54s-4,3.87-7.59,7.48A12.38,12.38,0,0,0,230,228l2.73-3.52c.79-1.17,1.37-2.16,1.9-2.08s.18,1-.45,2.25L232,228.48c9.46.64,10.08-2.87,10.08-4.33s-2.35-2.42-1-3.33,2.5-.27,3.58,1,1.44,2.35,4.06,1.37c0,0,20.63-8.54,23.23-9.73,2.35-1.06,1.67-2.06.28-3.25s-1.8-3.33-1.8-5.46c0-6.25,3.74-8.18,10.46-8a22.08,22.08,0,0,0-.22,3c0,9.76,14.73,19.28,18.72,19.28,1.77,0,4.17-1.33,4.31,4.52.13,4.35,1,7.37.22,12.39s-2.23,5.73-5.22,7.83-5.81,8.7-7.07,10.08c1.32.89,2.76,1,3.86-2.21.93-2.65,2-4.54,3.13-5.19-1.16,2.92-2,7.21-2.58,8.52,3.76.67,9.87-2.77,9.87-5.43s-2.11-2.44-2.11-4.21a2,2,0,0,1,2.11-1.65,3,3,0,0,1,2.75,1.77c1.67-.9,2.72-2.56,2.67-6.43,0-1.52-.08-3.08-.16-4.69a3.65,3.65,0,0,0,.33.6,4.36,4.36,0,0,0,3.4,1.92,6.58,6.58,0,0,0,4.12-1.14,6.33,6.33,0,0,0,2.81-3.94,4.5,4.5,0,0,0,.1-.94,4.12,4.12,0,0,0-3.45-4.14,6.76,6.76,0,0,0-7.46,4.64c-.32-5.29-.69-10.29-.55-12.29.23-3,.34-4.31-.67-4.75s-2.09,1.23-3.52,1.23-5.78-4-5.78-8.2,4.56-9.66,4.34-15.41c-.08-1.79,1-2.73,1.75-1.1a26.9,26.9,0,0,0,4.12,6.81c-1.2,7.23,6.78,14.29,13.34,9.06-3.25.46-5.47-2.41-6.92-5.31a8.66,8.66,0,0,0,1.75.17c.34,0,.67,0,1,0,2.3,2.83,9.61,2.62,11.5-4.46a7.57,7.57,0,0,1-5.81,2.37,11.71,11.71,0,0,0,4.17-9.39c0-18.39-22.29-20.51-22.29-37.26,0-6.18,5.44-10.18,9.21-10.18a5.54,5.54,0,0,1,3.44,1.11A8.4,8.4,0,0,0,318,150c.6,13.2,22.16,12.54,22.44,18.89,2.42-9.58-13.65-6.62-14.25-19.51" transform="translate(-44.77 -49.35)" />
  </g>
</svg>